<svg width="24" height="24" viewBox="0 0 24 24" fill="none" xmlns="http://www.w3.org/2000/svg">
<g clip-path="url(#clip0_181_1757)">
<path fill-rule="evenodd" clip-rule="evenodd" d="M9.84 20.275C9.421 21.247 8.255 21.808 7.172 21.254C5.126 20.205 3.718 19.006 2.857 17.674C1.986 16.325 1.717 14.908 1.838 13.524C2.074 10.841 3.784 8.29 5.2 6.4C7.084 3.888 9.48 2.5 12 2.5C14.52 2.5 16.916 3.888 18.8 6.4C20.201 8.268 22.04 10.834 22.34 13.525C22.495 14.922 22.24 16.357 21.332 17.719C20.438 19.061 18.959 20.259 16.794 21.304C15.711 21.827 14.556 21.257 14.151 20.281C13.429 20.735 12.673 21 12.001 21C11.325 21 10.564 20.732 9.839 20.275H9.84ZM6.8 7.6C8.416 5.446 10.27 4.5 12 4.5C13.73 4.5 15.584 5.446 17.2 7.6C18.654 9.538 20.122 11.682 20.352 13.746C20.461 14.726 20.287 15.68 19.668 16.61C19.042 17.548 17.917 18.53 16 19.467V18.566C16.866 17.416 17.5 15.874 17.5 14C17.5 13.617 17.48 13.245 17.439 12.887C17.4114 12.6446 17.2962 12.4206 17.1149 12.2572C16.9337 12.0938 16.699 12.0023 16.455 12C15.3598 11.9889 14.3063 11.579 13.4917 10.8469C12.6771 10.1148 12.1574 9.11078 12.03 8.023C12.0118 7.8796 11.963 7.74177 11.8869 7.61885C11.8108 7.49592 11.7093 7.39076 11.5891 7.31047C11.4689 7.23017 11.3328 7.17661 11.1901 7.15342C11.0475 7.13022 10.9015 7.13792 10.762 7.176C8.368 7.86 6.5 10.405 6.5 14C6.5 15.874 7.134 17.416 8 18.566V19.43C6.213 18.502 5.144 17.526 4.537 16.587C3.93 15.649 3.744 14.685 3.831 13.7C4.011 11.645 5.37 9.504 6.8 7.6ZM8.5 14C8.5 11.778 9.35 10.326 10.343 9.588C10.7251 10.7125 11.4077 11.711 12.3167 12.4753C13.2257 13.2396 14.3266 13.7406 15.5 13.924C15.512 15.332 15.032 16.713 14.075 17.756C13.245 18.663 12.367 19 12 19C11.634 19 10.757 18.663 9.925 17.756C9.138 16.897 8.5 15.633 8.5 14Z" fill="#BD8127"/>
</g>
<defs>
<clipPath id="clip0_181_1757">
<rect width="24" height="24" fill="white"/>
</clipPath>
</defs>
</svg>
