<svg width="21" height="21" viewBox="0 0 21 21" fill="none" xmlns="http://www.w3.org/2000/svg">
<path d="M2.333 2H6.823L8.27 5.618L5.945 7.168C5.80808 7.25935 5.69583 7.38308 5.6182 7.52822C5.54058 7.67335 5.49997 7.83541 5.5 8C5.503 8.094 5.5 8.001 5.5 8.001V8.022C5.50059 8.06672 5.50259 8.11141 5.506 8.156C5.512 8.238 5.522 8.349 5.541 8.486C5.58 8.756 5.655 9.128 5.801 9.566C6.095 10.446 6.671 11.585 7.793 12.707C8.915 13.829 10.054 14.405 10.933 14.699C11.372 14.845 11.743 14.919 12.015 14.959C12.1685 14.9804 12.3231 14.9938 12.478 14.999L12.491 15H12.499C12.499 15 12.611 14.994 12.5 15C12.6857 14.9999 12.8676 14.9481 13.0255 14.8504C13.1834 14.7528 13.311 14.6131 13.394 14.447L14.064 13.107L18.5 13.847V18.167C16.389 18.472 10.687 18.773 6.207 14.293C1.727 9.813 2.027 4.11 2.333 2ZM7.573 8.486L9.38 7.282C9.76174 7.02737 10.0443 6.64922 10.1803 6.21096C10.3163 5.77271 10.2975 5.30102 10.127 4.875L8.68 1.257C8.53151 0.885905 8.27524 0.567815 7.94424 0.343762C7.61324 0.119709 7.2227 -2.67934e-05 6.823 4.49722e-09H2.281C1.372 4.49722e-09 0.517 0.631 0.368 1.617C0.0279998 3.859 -0.433 10.481 4.793 15.707C10.019 20.933 16.641 20.471 18.883 20.132C19.869 19.982 20.5 19.128 20.5 18.219V13.847C20.5001 13.3736 20.3322 12.9155 20.0262 12.5542C19.7202 12.1929 19.296 11.9519 18.829 11.874L14.393 11.135C13.9711 11.0646 13.5377 11.1313 13.1565 11.3253C12.7753 11.5193 12.4664 11.8304 12.275 12.213L11.929 12.906C11.8066 12.8759 11.6855 12.8408 11.566 12.801C10.946 12.595 10.085 12.171 9.207 11.293C8.329 10.415 7.905 9.554 7.699 8.933C7.64981 8.78621 7.60809 8.63702 7.574 8.486H7.573Z" fill="#0C952A"/>
</svg>
