<svg width="24" height="24" viewBox="0 0 24 24" fill="none" xmlns="http://www.w3.org/2000/svg">
<path d="M4.79999 7.99999C5.3617 7.99997 5.9135 7.85211 6.39995 7.57125C6.88639 7.29039 7.29034 6.88644 7.57119 6.39999H19.2C19.6243 6.39999 20.0313 6.23142 20.3314 5.93136C20.6314 5.6313 20.8 5.22433 20.8 4.79999C20.8 4.37564 20.6314 3.96867 20.3314 3.66862C20.0313 3.36856 19.6243 3.19999 19.2 3.19999H7.57119C7.29032 2.71356 6.88637 2.30964 6.39992 2.02881C5.91348 1.74797 5.36168 1.60013 4.79999 1.60013C4.2383 1.60013 3.68651 1.74797 3.20006 2.02881C2.71362 2.30964 2.30966 2.71356 2.02879 3.19999H4.79999V6.39999H2.02879C2.30965 6.88644 2.71359 7.29039 3.20004 7.57125C3.68649 7.85211 4.23829 7.99997 4.79999 7.99999ZM3.43359 14.9664C3.28404 15.1163 3.20004 15.3194 3.19999 15.5312V21.6C3.19999 21.8122 3.28428 22.0156 3.43431 22.1657C3.58434 22.3157 3.78782 22.4 3.99999 22.4H6.39999C6.61217 22.4 6.81565 22.3157 6.96568 22.1657C7.11571 22.0156 7.19999 21.8122 7.19999 21.6V20.8H16.8V21.6C16.8 21.8122 16.8843 22.0156 17.0343 22.1657C17.1843 22.3157 17.3878 22.4 17.6 22.4H20C20.2122 22.4 20.4157 22.3157 20.5657 22.1657C20.7157 22.0156 20.8 21.8122 20.8 21.6V15.5312C20.7999 15.3194 20.7159 15.1163 20.5664 14.9664L19.2 13.6L17.0336 9.98879C16.9624 9.86996 16.8616 9.77166 16.741 9.70351C16.6204 9.63535 16.4841 9.59968 16.3456 9.59999H7.65439C7.51614 9.59996 7.38024 9.63576 7.25994 9.7039C7.13964 9.77204 7.03906 9.87019 6.96799 9.98879L4.79999 13.6L3.43359 14.9664ZM17.8144 14.4H6.18559L8.10559 11.2H15.8944L17.8144 14.4ZM8.79999 17.3248V17.92C8.79999 18.0473 8.74942 18.1694 8.6594 18.2594C8.56939 18.3494 8.4473 18.4 8.31999 18.4H5.27999C5.15269 18.4 5.0306 18.3494 4.94058 18.2594C4.85056 18.1694 4.79999 18.0473 4.79999 17.92V16.5856C4.80003 16.5146 4.81582 16.4444 4.84623 16.3803C4.87665 16.3161 4.92092 16.2595 4.97587 16.2145C5.03082 16.1695 5.09506 16.1372 5.16398 16.12C5.23289 16.1029 5.30476 16.1012 5.37439 16.1152L8.28639 16.6976C8.43125 16.7268 8.56154 16.8052 8.65516 16.9195C8.74877 17.0338 8.79995 17.177 8.79999 17.3248ZM19.2 16.7808V17.92C19.2 18.0473 19.1494 18.1694 19.0594 18.2594C18.9694 18.3494 18.8473 18.4 18.72 18.4H15.68C15.5527 18.4 15.4306 18.3494 15.3406 18.2594C15.2506 18.1694 15.2 18.0473 15.2 17.92V17.1936C15.2 17.0827 15.2385 16.9753 15.3088 16.8895C15.3791 16.8038 15.4769 16.745 15.5856 16.7232L18.4336 16.1536C18.5265 16.1349 18.6224 16.137 18.7143 16.1599C18.8063 16.1827 18.892 16.2257 18.9653 16.2857C19.0386 16.3457 19.0977 16.4212 19.1383 16.5069C19.1789 16.5925 19.2 16.686 19.2 16.7808Z" fill="#4B4B4B"/>
</svg>
