<svg width="17" height="18" viewBox="0 0 17 18" fill="none" xmlns="http://www.w3.org/2000/svg">
<path d="M3.41667 8.16675L8 0.666748L12.5833 8.16675H3.41667ZM12.5833 17.3334C11.5417 17.3334 10.6564 16.969 9.9275 16.2401C9.19861 15.5112 8.83389 14.6256 8.83333 13.5834C8.83333 12.5417 9.19806 11.6565 9.9275 10.9276C10.6569 10.1987 11.5422 9.83397 12.5833 9.83341C13.625 9.83341 14.5106 10.1981 15.24 10.9276C15.9694 11.657 16.3339 12.5423 16.3333 13.5834C16.3333 14.6251 15.9689 15.5106 15.24 16.2401C14.5111 16.9695 13.6256 17.334 12.5833 17.3334ZM0.5 16.9167V10.2501H7.16667V16.9167H0.5ZM12.5833 15.6667C13.1667 15.6667 13.6597 15.4654 14.0625 15.0626C14.4653 14.6598 14.6667 14.1667 14.6667 13.5834C14.6667 13.0001 14.4653 12.507 14.0625 12.1042C13.6597 11.7015 13.1667 11.5001 12.5833 11.5001C12 11.5001 11.5069 11.7015 11.1042 12.1042C10.7014 12.507 10.5 13.0001 10.5 13.5834C10.5 14.1667 10.7014 14.6598 11.1042 15.0626C11.5069 15.4654 12 15.6667 12.5833 15.6667ZM2.16667 15.2501H5.5V11.9167H2.16667V15.2501ZM6.375 6.50008H9.625L8 3.87508L6.375 6.50008Z" fill="#4B4B4B"/>
</svg>
