<svg width="15" height="15" viewBox="0 0 15 15" fill="none" xmlns="http://www.w3.org/2000/svg">
<g clip-path="url(#clip0_1327_5449)">
<path d="M7.5 0C11.6455 0 15 3.35449 15 7.5C15 11.6455 11.6455 15 7.5 15C3.35449 15 0 11.6455 0 7.5C0 3.35449 3.35449 0 7.5 0ZM7.5 14.0771C11.1182 14.0771 14.0625 11.1182 14.0625 7.5C14.0625 3.88184 11.1182 0.9375 7.5 0.9375C3.88184 0.9375 0.9375 3.88184 0.9375 7.5C0.9375 11.1182 3.88184 14.0771 7.5 14.0771ZM6.9873 7.96875H4.21875C3.95508 7.96875 3.75 7.76367 3.75 7.5C3.75 7.23633 3.95508 7.03125 4.21875 7.03125H10.7812C11.0449 7.03125 11.25 7.23633 11.25 7.5C11.25 7.76367 11.0449 7.96875 10.7812 7.96875H6.9873Z" fill="#04BFD4"/>
</g>
<defs>
<clipPath id="clip0_1327_5449">
<rect width="15" height="15" fill="white"/>
</clipPath>
</defs>
</svg>
