<svg width="24" height="24" viewBox="0 0 24 24" fill="none" xmlns="http://www.w3.org/2000/svg">
<path d="M21.1429 13.1426V16.5711C21.1429 18.0569 17.5611 19.9997 13.1429 19.9997C8.72457 19.9997 5.14285 18.0569 5.14285 16.5711V13.714" stroke="white" stroke-linecap="round" stroke-linejoin="round"/>
<path d="M5.47885 14.0104C6.46742 15.3224 9.52457 16.5532 13.1429 16.5532C17.5611 16.5532 21.1429 14.7178 21.1429 13.1407C21.1429 12.2549 20.0149 11.2847 18.2446 10.6035" stroke="white" stroke-linecap="round" stroke-linejoin="round"/>
<path d="M17.7143 7.42871V10.8573C17.7143 12.343 14.1326 14.2859 9.71428 14.2859C5.29599 14.2859 1.71428 12.343 1.71428 10.8573V7.42871" stroke="white" stroke-linecap="round" stroke-linejoin="round"/>
<path fill-rule="evenodd" clip-rule="evenodd" d="M9.71428 10.8389C14.1326 10.8389 17.7143 9.00343 17.7143 7.42629C17.7143 5.848 14.1326 4 9.71428 4C5.29599 4 1.71428 5.848 1.71428 7.42629C1.71428 9.00343 5.29599 10.8389 9.71428 10.8389Z" stroke="white" stroke-linecap="round" stroke-linejoin="round"/>
</svg>
