<svg width="22" height="22" viewBox="0 0 22 22" fill="none" xmlns="http://www.w3.org/2000/svg">
<path d="M1.304 16.13L1.997 15.844L1.304 16.131V16.13ZM10.515 20.892L10.775 20.454L9.483 19.69L9.223 20.128L10.515 20.892ZM7.225 20.454L7.485 20.892L8.776 20.128L8.516 19.69L7.225 20.454ZM9.224 20.128C9.20105 20.1666 9.16814 20.1983 9.12873 20.2197C9.08932 20.2412 9.04485 20.2516 9 20.25C8.95515 20.2516 8.91068 20.2412 8.87127 20.2197C8.83186 20.1983 8.79895 20.1666 8.776 20.128L7.486 20.892C8.162 22.036 9.838 22.036 10.515 20.892L9.224 20.128ZM7.8 5.75H10.2V4.25H7.8V5.75ZM16.25 11.8V12.6H17.75V11.8H16.25ZM1.75 12.6V11.8H0.250001V12.6H1.75ZM0.250001 12.6C0.250001 13.522 0.250001 14.25 0.290001 14.84C0.330001 15.436 0.415001 15.944 0.612001 16.418L1.997 15.844C1.889 15.583 1.822 15.257 1.787 14.738C1.75 14.211 1.75 13.542 1.75 12.6H0.250001ZM5.313 17.835C4.521 17.81 4.09 17.741 3.756 17.603L3.182 18.988C3.779 19.236 4.437 19.308 5.265 19.335L5.313 17.835ZM0.612001 16.418C1.09409 17.5815 2.0185 18.5059 3.182 18.988L3.756 17.603C3.36157 17.4396 3.00321 17.2 2.70139 16.898C2.39958 16.596 2.16022 16.2385 1.997 15.844L0.612001 16.418ZM16.25 12.6C16.25 13.542 16.25 14.211 16.214 14.738C16.178 15.258 16.111 15.583 16.003 15.844L17.388 16.418C17.585 15.944 17.669 15.436 17.71 14.84C17.75 14.25 17.75 13.522 17.75 12.6H16.25ZM12.735 19.335C13.563 19.308 14.221 19.235 14.818 18.988L14.244 17.603C13.909 17.741 13.479 17.81 12.687 17.835L12.735 19.335ZM16.003 15.844C15.8396 16.2384 15.6 16.5968 15.298 16.8986C14.996 17.2004 14.6375 17.4398 14.243 17.603L14.818 18.988C15.9815 18.5059 16.9059 17.5815 17.388 16.418L16.003 15.844ZM10.2 5.75C11.524 5.75 12.464 5.75 13.195 5.82C13.915 5.889 14.355 6.019 14.698 6.229L15.482 4.95C14.863 4.57 14.167 4.406 13.337 4.327C12.519 4.249 11.495 4.25 10.2 4.25V5.75ZM17.75 11.8C17.75 10.505 17.75 9.481 17.673 8.663C17.594 7.833 17.429 7.138 17.05 6.519L15.771 7.302C15.981 7.645 16.111 8.085 16.18 8.805C16.25 9.535 16.25 10.476 16.25 11.8H17.75ZM14.698 6.229C15.1353 6.49699 15.503 6.86468 15.771 7.302L17.05 6.519C16.6584 5.87994 16.1211 5.34164 15.482 4.95L14.698 6.229ZM7.8 4.25C6.505 4.25 5.481 4.25 4.663 4.327C3.833 4.406 3.137 4.571 2.518 4.95L3.302 6.229C3.645 6.019 4.085 5.889 4.805 5.82C5.535 5.75 6.476 5.75 7.8 5.75V4.25ZM1.75 11.8C1.75 10.476 1.75 9.536 1.82 8.805C1.889 8.085 2.019 7.645 2.229 7.302L0.950001 6.518C0.570001 7.137 0.406001 7.833 0.327001 8.663C0.249001 9.481 0.250001 10.505 0.250001 11.8H1.75ZM2.518 4.95C1.87894 5.34164 1.34164 5.87894 0.950001 6.518L2.229 7.302C2.49699 6.86468 2.86468 6.49699 3.302 6.229L2.518 4.95ZM8.517 19.69C8.316 19.35 8.14 19.052 7.969 18.816C7.79294 18.5581 7.56468 18.3401 7.299 18.176L6.535 19.468C6.581 19.495 6.645 19.545 6.755 19.698C6.875 19.863 7.011 20.091 7.225 20.454L8.517 19.69ZM5.265 19.335C5.711 19.349 5.995 19.359 6.212 19.385C6.416 19.41 6.493 19.443 6.535 19.468L7.298 18.177C7.008 18.006 6.704 17.934 6.393 17.897C6.095 17.86 5.732 17.849 5.313 17.835L5.265 19.335ZM10.775 20.454C10.989 20.091 11.125 19.863 11.245 19.698C11.355 19.545 11.419 19.495 11.465 19.468L10.702 18.177C10.4363 18.3411 10.2081 18.5591 10.032 18.817C9.86 19.052 9.684 19.351 9.483 19.69L10.775 20.454ZM12.687 17.835C12.268 17.849 11.905 17.86 11.607 17.896C11.297 17.934 10.991 18.007 10.702 18.177L11.465 19.468C11.507 19.443 11.584 19.41 11.788 19.385C12.004 19.359 12.289 19.349 12.735 19.335L12.687 17.835Z" fill="#B00303"/>
<path d="M12.375 1.74902H14.625V0.249023H12.375V1.74902ZM20.25 7.37402V8.12402H21.75V7.37402H20.25ZM20.25 8.12402C20.25 9.00802 20.25 9.63402 20.216 10.124C20.183 10.61 20.12 10.909 20.022 11.147L21.407 11.721C21.594 11.27 21.674 10.788 21.712 10.227C21.75 9.67302 21.75 8.98702 21.75 8.12402H20.25ZM20.022 11.147C19.8712 11.5111 19.6502 11.8419 19.3716 12.1206C19.0929 12.3992 18.7621 12.6203 18.398 12.771L18.972 14.157C19.5179 13.9308 20.014 13.5992 20.4318 13.1812C20.8496 12.7632 21.181 12.2671 21.407 11.721L20.022 11.147ZM14.625 1.74902C15.867 1.74902 16.745 1.75002 17.429 1.81602C18.1 1.88002 18.504 2.00002 18.817 2.19202L19.601 0.913023C19.013 0.553023 18.352 0.397023 17.571 0.323023C16.801 0.249023 15.838 0.250023 14.625 0.250023V1.74902ZM21.75 7.37502C21.75 6.16202 21.75 5.20002 21.677 4.42902C21.603 3.64802 21.447 2.98702 21.087 2.39902L19.807 3.18302C20 3.49602 20.12 3.90002 20.184 4.57102C20.249 5.25402 20.25 6.13302 20.25 7.37502H21.75ZM18.817 2.19202C19.2205 2.43932 19.5597 2.77956 19.807 3.18302L21.087 2.39902C20.7156 1.79324 20.207 1.28401 19.601 0.913023L18.817 2.19302V2.19202ZM12.375 0.250023C11.162 0.250023 10.2 0.250024 9.429 0.322024C8.648 0.397024 7.987 0.552023 7.399 0.913023L8.182 2.19302C8.496 2.00002 8.9 1.88002 9.572 1.81602C10.254 1.75102 11.132 1.74902 12.375 1.74902V0.250023ZM7.399 0.913023C6.79321 1.28442 6.28398 1.79399 5.913 2.40002L7.192 3.18402C7.4393 2.78056 7.77853 2.44032 8.182 2.19302L7.4 0.912023L7.399 0.913023ZM6.782 5.04002C6.832 4.08002 6.957 3.56702 7.192 3.18402L5.913 2.40002C5.476 3.11302 5.337 3.93802 5.284 4.96202L6.782 5.04002ZM17.025 14.486C17.792 14.46 18.409 14.392 18.972 14.159L18.398 12.773C18.096 12.898 17.704 12.963 16.975 12.987L17.025 14.486Z" fill="#B00303"/>
<path d="M5.50999 12H5.51799M8.99999 12H9.00899M12.491 12H12.5" stroke="#B00303" stroke-width="2" stroke-linecap="round" stroke-linejoin="round"/>
</svg>
