<svg width="24" height="24" viewBox="0 0 24 24" fill="none" xmlns="http://www.w3.org/2000/svg">
<g clip-path="url(#clip0_181_472)">
<path fill-rule="evenodd" clip-rule="evenodd" d="M19.839 4.282C20.629 5.073 21.019 5.993 20.999 7.002C20.982 7.963 20.594 8.896 20.061 9.766C19.351 10.928 18.266 12.154 17.053 13.411L16.381 14.1L15.691 14.794L14.421 16.062L13.681 16.792C12.329 18.109 11.011 19.299 9.766 20.061C8.896 20.594 7.963 20.981 7.002 21C5.993 21.02 5.073 20.63 4.282 19.839C3.095 18.652 2.586 16.494 2.885 14.194C3.178 11.938 4.256 9.391 6.45 7.074L6.773 6.742C9.17 4.352 11.84 3.191 14.193 2.885C16.494 2.586 18.652 3.095 19.839 4.282ZM18.425 5.697C17.844 5.116 16.417 4.613 14.451 4.868C14.021 4.924 13.572 5.016 13.111 5.149C13.371 5.449 13.711 5.664 14.145 5.809C14.2712 5.84926 14.3881 5.91417 14.489 5.99998C14.5899 6.08578 14.6727 6.19077 14.7327 6.30885C14.7926 6.42693 14.8286 6.55575 14.8383 6.68782C14.8481 6.81989 14.8316 6.9526 14.7896 7.07822C14.7477 7.20385 14.6813 7.3199 14.5941 7.41964C14.507 7.51937 14.4009 7.6008 14.2821 7.65921C14.1632 7.71761 14.0339 7.75182 13.9017 7.75986C13.7695 7.76789 13.6371 7.74958 13.512 7.706C12.502 7.37 11.724 6.764 11.204 5.917C10.2948 6.3959 9.45 6.9883 8.69 7.68C8.849 7.917 9.062 8.18 9.32 8.438C9.744 8.861 10.178 9.164 10.496 9.301L10.609 9.345C10.8607 9.42881 11.0688 9.60917 11.1875 9.84641C11.3062 10.0836 11.3258 10.3583 11.242 10.61C11.1582 10.8617 10.9778 11.0698 10.7406 11.1885C10.5034 11.3072 10.2287 11.3268 9.977 11.243C9.239 10.997 8.491 10.436 7.907 9.852C7.68508 9.63064 7.47734 9.3955 7.285 9.148C6.64868 9.91572 6.11301 10.7616 5.691 11.665C5.962 12.269 6.407 12.659 7.074 12.881C7.32228 12.9675 7.5265 13.1483 7.64244 13.3843C7.75839 13.6203 7.77674 13.8924 7.69352 14.1418C7.61029 14.3912 7.4322 14.5978 7.19778 14.7169C6.96336 14.836 6.69148 14.8579 6.441 14.778C5.89443 14.6015 5.3876 14.3199 4.949 13.949C4.917 14.119 4.889 14.287 4.869 14.452C4.613 16.418 5.116 17.845 5.697 18.426C6.143 18.872 6.553 19.009 6.964 19.001C7.422 18.992 7.997 18.8 8.722 18.356C9.674 17.774 10.71 16.871 11.855 15.776L12.49 15.159L13.485 14.172L14.837 12.817L15.471 12.171C16.704 10.901 17.72 9.761 18.355 8.723C18.799 7.998 18.991 7.423 19 6.965C19.008 6.555 18.871 6.144 18.425 5.697Z" fill="#BD8127"/>
</g>
<defs>
<clipPath id="clip0_181_472">
<rect width="24" height="24" fill="white"/>
</clipPath>
</defs>
</svg>
