<svg width="166" height="30" viewBox="0 0 166 30" fill="none" xmlns="http://www.w3.org/2000/svg">
<g filter="url(#filter0_dd_1303_5084)">
<path d="M14.5234 7.4375C15.4349 7.48958 16.1836 7.84115 16.7695 8.49219C17.3555 9.13021 17.7786 9.85938 18.0391 10.6797C18.2995 11.5 18.4297 12.3398 18.4297 13.1992C18.4297 14.0586 18.2995 14.8984 18.0391 15.7188C17.7917 16.5391 17.3685 17.2747 16.7695 17.9258C16.1836 18.5638 15.4349 18.9089 14.5234 18.9609H7.33594C6.98438 18.9479 6.6849 18.8242 6.4375 18.5898C6.20312 18.3424 6.07943 18.043 6.06641 17.6914V12.8477C6.07943 12.4831 6.21615 12.1836 6.47656 11.9492C6.73698 11.7018 7.04948 11.5781 7.41406 11.5781C7.76562 11.5911 8.0651 11.7214 8.3125 11.9688C8.5599 12.2031 8.6901 12.4961 8.70312 12.8477V15.8164C8.70312 16.168 8.88542 16.3438 9.25 16.3438H13.8594C14.3542 16.3177 14.7643 16.1289 15.0898 15.7773C15.4154 15.4258 15.6497 15.0286 15.793 14.5859C15.9492 14.1302 16.0273 13.668 16.0273 13.1992C16.0273 12.7305 15.9492 12.2747 15.793 11.832C15.6497 11.3763 15.4154 10.9727 15.0898 10.6211C14.7643 10.2695 14.3542 10.0807 13.8594 10.0547H7.33594C6.55469 9.98958 6.13151 9.56641 6.06641 8.78516C6.06641 8.42057 6.18359 8.10807 6.41797 7.84766C6.66536 7.58724 6.97135 7.45052 7.33594 7.4375H14.5234ZM21.9062 9.89844C22.2578 9.91146 22.5573 10.0417 22.8047 10.2891C23.0521 10.5234 23.1823 10.8164 23.1953 11.168V17.9258C23.1172 18.707 22.6875 19.1302 21.9062 19.1953C21.5417 19.1953 21.2227 19.0781 20.9492 18.8438C20.6888 18.5964 20.5586 18.2904 20.5586 17.9258V11.168C20.5716 10.8034 20.7083 10.5039 20.9688 10.2695C21.2292 10.0221 21.5417 9.89844 21.9062 9.89844ZM20.2656 7.35938C20.2656 6.99479 20.4219 6.68229 20.7344 6.42188C21.0469 6.16146 21.4245 6.03125 21.8672 6.03125C22.3099 6.03125 22.6875 6.16146 23 6.42188C23.3125 6.68229 23.4688 6.99479 23.4688 7.35938C23.4688 7.73698 23.3125 8.05599 23 8.31641C22.6875 8.57682 22.3099 8.70703 21.8672 8.70703C21.4245 8.70703 21.0469 8.57682 20.7344 8.31641C20.4219 8.05599 20.2656 7.73698 20.2656 7.35938ZM28.6641 17.9258C28 17.0273 27.3359 15.849 26.6719 14.3906L25.4023 11.6562C25.3372 11.513 25.2982 11.3568 25.2852 11.1875C25.2591 10.8229 25.3698 10.5104 25.6172 10.25C25.8646 9.98958 26.1901 9.85938 26.5938 9.85938C27.0365 9.85938 27.362 9.95052 27.5703 10.1328C27.7917 10.3021 27.9674 10.5234 28.0977 10.7969L29.0156 13.0625C29.25 13.5964 29.4779 14.1042 29.6992 14.5859C29.9336 15.0547 30.194 15.4844 30.4805 15.875C30.7799 16.2656 31.112 16.474 31.4766 16.5C31.8281 16.474 32.1602 16.2656 32.4727 15.875C32.7461 15.4844 32.9935 15.0547 33.2148 14.5859C33.4492 14.1042 33.6836 13.5964 33.918 13.0625L34.8359 10.7969C34.9661 10.5234 35.1354 10.3021 35.3438 10.1328C35.5651 9.95052 35.8971 9.85938 36.3398 9.85938C36.7435 9.85938 37.069 9.98958 37.3164 10.25C37.5638 10.5104 37.6745 10.8229 37.6484 11.1875C37.6354 11.3568 37.5964 11.513 37.5312 11.6562L36.2617 14.3906C35.5977 15.849 34.9336 17.0273 34.2695 17.9258C33.6315 18.8112 32.7005 19.2604 31.4766 19.2734C30.2396 19.2604 29.3021 18.8112 28.6641 17.9258ZM41.125 9.85938C41.4896 9.85938 41.8021 9.98307 42.0625 10.2305C42.3229 10.4648 42.4596 10.7643 42.4727 11.1289V13.1016C42.4596 13.6354 42.4922 14.1302 42.5703 14.5859C42.6615 15.0286 42.8698 15.4258 43.1953 15.7773C43.5208 16.1289 43.931 16.3177 44.4258 16.3438H49.6406V11.168C49.6406 10.8034 49.7708 10.5039 50.0312 10.2695C50.3047 10.0221 50.6237 9.89844 50.9883 9.89844C51.7695 9.96354 52.1992 10.3867 52.2773 11.168V17.5352C52.2773 18.5768 52.1341 19.5599 51.8477 20.4844C51.5872 21.3047 51.1576 21.9948 50.5586 22.5547C49.9727 23.1276 49.224 23.4401 48.3125 23.4922H41.5547C41.2031 23.4792 40.9036 23.349 40.6562 23.1016C40.4219 22.8672 40.2982 22.5742 40.2852 22.2227C40.2852 21.8581 40.4023 21.5456 40.6367 21.2852C40.8841 21.0247 41.1901 20.888 41.5547 20.875H47.6484C48.1432 20.849 48.5534 20.6602 48.8789 20.3086C49.2044 19.957 49.4128 19.5469 49.5039 19.0781C49.5169 19.0391 49.5234 19 49.5234 18.9609H43.7617C42.8503 18.9089 42.0951 18.6029 41.4961 18.043C40.9102 17.4701 40.487 16.7734 40.2266 15.9531C39.9792 15.1328 39.849 14.2604 39.8359 13.3359V11.1289C39.849 10.7773 39.9792 10.4844 40.2266 10.25C40.474 10.0026 40.7734 9.8724 41.125 9.85938ZM65.7539 17.9258V13.2188C65.7539 12.8932 65.5846 12.724 65.2461 12.7109H58.4102C58.1628 12.724 57.9479 12.8346 57.7656 13.043C57.5833 13.2383 57.4466 13.4727 57.3555 13.7461C57.2773 14.0065 57.2383 14.2734 57.2383 14.5469C57.2383 14.8073 57.2773 15.0742 57.3555 15.3477C57.4466 15.6081 57.5833 15.8424 57.7656 16.0508C57.9479 16.2461 58.1628 16.3438 58.4102 16.3438H63.4102C63.7747 16.3438 64.0807 16.474 64.3281 16.7344C64.5885 16.9818 64.7188 17.2878 64.7188 17.6523C64.7188 18.0169 64.5885 18.3229 64.3281 18.5703C64.0807 18.8307 63.7747 18.9609 63.4102 18.9609H58.4883C57.5768 18.9479 56.8216 18.694 56.2227 18.1992C55.6367 17.6914 55.2135 17.125 54.9531 16.5C54.7057 15.862 54.582 15.2044 54.582 14.5273C54.582 13.8763 54.7122 13.2383 54.9727 12.6133C55.2331 11.9753 55.6562 11.4089 56.2422 10.9141C56.8281 10.4062 57.694 10.1328 58.8398 10.0938H67.043C67.4076 10.0938 67.7201 10.2174 67.9805 10.4648C68.2409 10.6992 68.3776 10.9987 68.3906 11.3633V17.9258C68.3906 18.2904 68.2539 18.5964 67.9805 18.8438C67.7201 19.0781 67.4076 19.1953 67.043 19.1953C66.2617 19.1302 65.832 18.707 65.7539 17.9258ZM75.0508 9.80078C75.5065 9.80078 75.9492 9.87891 76.3789 10.0352C76.8216 10.1914 77.2448 10.4193 77.6484 10.7188C77.7135 10.7839 77.7852 10.849 77.8633 10.9141C77.9284 10.849 78 10.7839 78.0781 10.7188C78.4818 10.4193 78.8984 10.1914 79.3281 10.0352C79.7708 9.87891 80.2135 9.80078 80.6562 9.80078C81.112 9.80078 81.5547 9.87891 81.9844 10.0352C82.4271 10.1914 82.8438 10.4258 83.2344 10.7383C83.638 11.0378 83.9896 11.4414 84.2891 11.9492C84.6016 12.457 84.7578 13.0625 84.7578 13.7656V17.9258C84.6797 18.707 84.25 19.1302 83.4688 19.1953C83.1042 19.1953 82.7852 19.0781 82.5117 18.8438C82.2513 18.5964 82.1211 18.2904 82.1211 17.9258V13.9219C82.1211 13.6094 82.0625 13.349 81.9453 13.1406C81.8281 12.9193 81.6979 12.75 81.5547 12.6328C81.4115 12.5026 81.2617 12.4115 81.1055 12.3594C80.9492 12.2943 80.793 12.2617 80.6367 12.2617C80.4805 12.2617 80.3242 12.2943 80.168 12.3594C80.0247 12.4115 79.8815 12.5026 79.7383 12.6328C79.5951 12.75 79.4648 12.9193 79.3477 13.1406C79.2305 13.349 79.1654 13.6094 79.1523 13.9219V17.9258C79.0742 18.707 78.6445 19.1302 77.8633 19.1953C77.4987 19.1953 77.1797 19.0781 76.9062 18.8438C76.6458 18.5964 76.5156 18.2904 76.5156 17.9258V13.9219C76.5156 13.6094 76.457 13.349 76.3398 13.1406C76.2227 12.9193 76.0924 12.75 75.9492 12.6328C75.806 12.5026 75.6562 12.4115 75.5 12.3594C75.3438 12.2943 75.1875 12.2617 75.0312 12.2617C74.875 12.2617 74.7188 12.2943 74.5625 12.3594C74.4193 12.4115 74.276 12.5026 74.1328 12.6328C73.9896 12.75 73.8594 12.9193 73.7422 13.1406C73.625 13.349 73.5599 13.6094 73.5469 13.9219V17.9258C73.4818 18.707 73.0586 19.1302 72.2773 19.1953C71.9128 19.1953 71.5938 19.0781 71.3203 18.8438C71.0599 18.5964 70.9297 18.2904 70.9297 17.9258V13.7656C70.9557 13.0625 71.1185 12.457 71.418 11.9492C71.7174 11.4414 72.069 11.0378 72.4727 10.7383C72.8763 10.4258 73.293 10.1914 73.7227 10.0352C74.1654 9.87891 74.6081 9.80078 75.0508 9.80078ZM100.812 7.4375H101.711H108.352C108.716 7.45052 109.016 7.58724 109.25 7.84766C109.497 8.10807 109.621 8.42057 109.621 8.78516C109.556 9.56641 109.133 9.98958 108.352 10.0547H101.477C100.982 10.0807 100.572 10.2695 100.246 10.6211C99.9206 10.9727 99.6797 11.3763 99.5234 11.832C99.3802 12.2747 99.3086 12.7305 99.3086 13.1992C99.3086 13.668 99.3802 14.1302 99.5234 14.5859C99.6797 15.0286 99.9206 15.4258 100.246 15.7773C100.572 16.1289 100.982 16.3177 101.477 16.3438H108.352C108.716 16.3568 109.016 16.4935 109.25 16.7539C109.497 17.0143 109.621 17.3268 109.621 17.6914C109.608 18.043 109.478 18.3424 109.23 18.5898C108.996 18.8242 108.703 18.9479 108.352 18.9609H101.184H100.812C99.901 18.9089 99.1458 18.5638 98.5469 17.9258C97.9609 17.2747 97.5378 16.5391 97.2773 15.7188C97.0299 14.8984 96.9062 14.0586 96.9062 13.1992C96.9062 12.3398 97.0365 11.5 97.2969 10.6797C97.5573 9.85938 97.9805 9.13021 98.5664 8.49219C99.1523 7.84115 99.901 7.48958 100.812 7.4375ZM109.582 13.1211C109.582 13.4857 109.452 13.7917 109.191 14.0391C108.944 14.2995 108.638 14.4297 108.273 14.4297H102.375C102.01 14.4297 101.698 14.306 101.438 14.0586C101.19 13.7982 101.066 13.4857 101.066 13.1211C101.066 12.7565 101.19 12.444 101.438 12.1836C101.698 11.9362 102.01 11.8125 102.375 11.8125H108.273C108.638 11.8125 108.944 11.9427 109.191 12.2031C109.452 12.4505 109.582 12.7565 109.582 13.1211ZM117.336 17.75C116.333 18.5052 115.363 18.9089 114.426 18.9609H112.395C112.043 18.9479 111.743 18.8242 111.496 18.5898C111.262 18.3424 111.138 18.043 111.125 17.6914C111.125 17.3268 111.242 17.0143 111.477 16.7539C111.724 16.4935 112.03 16.3568 112.395 16.3438H114.23C114.725 16.3177 115.24 16.1289 115.773 15.7773C116.307 15.4258 116.75 15.0221 117.102 14.5664C117.141 14.5273 117.18 14.4818 117.219 14.4297C116.867 14 116.438 13.6159 115.93 13.2773C115.396 12.9258 114.882 12.737 114.387 12.7109H112.551C112.186 12.6979 111.88 12.5612 111.633 12.3008C111.398 12.0404 111.281 11.7279 111.281 11.3633C111.294 11.0117 111.418 10.7188 111.652 10.4844C111.9 10.237 112.199 10.1068 112.551 10.0938H114.582C115.52 10.1458 116.49 10.5495 117.492 11.3047C117.922 11.6302 118.326 12.0013 118.703 12.418C119.081 12.0013 119.491 11.6302 119.934 11.3047C120.923 10.5495 121.887 10.1458 122.824 10.0938H124.855C125.207 10.1068 125.5 10.237 125.734 10.4844C125.982 10.7188 126.112 11.0117 126.125 11.3633C126.125 11.7279 126.001 12.0404 125.754 12.3008C125.52 12.5612 125.22 12.6979 124.855 12.7109H123.02C122.525 12.737 122.01 12.9258 121.477 13.2773C120.969 13.6159 120.539 14 120.188 14.4297C120.227 14.4818 120.266 14.5273 120.305 14.5664C120.656 15.0221 121.099 15.4258 121.633 15.7773C122.167 16.1289 122.681 16.3177 123.176 16.3438H125.012C125.376 16.3568 125.676 16.4935 125.91 16.7539C126.158 17.0143 126.281 17.3268 126.281 17.6914C126.268 18.043 126.138 18.3424 125.891 18.5898C125.656 18.8242 125.363 18.9479 125.012 18.9609H122.98C122.043 18.9089 121.079 18.5052 120.09 17.75C119.582 17.3594 119.12 16.9362 118.703 16.4805C118.286 16.9362 117.831 17.3594 117.336 17.75ZM132.238 18.9609C131.092 18.9219 130.227 18.6549 129.641 18.1602C129.055 17.6523 128.632 17.0859 128.371 16.4609C128.111 15.8229 127.98 15.1784 127.98 14.5273C127.98 13.8503 128.104 13.1992 128.352 12.5742C128.612 11.9362 129.035 11.3698 129.621 10.875C130.22 10.3672 130.975 10.1068 131.887 10.0938H139.309C139.673 10.0938 139.979 10.224 140.227 10.4844C140.487 10.7318 140.617 11.0378 140.617 11.4023C140.617 11.7669 140.487 12.0794 140.227 12.3398C139.979 12.5872 139.673 12.7109 139.309 12.7109H131.809C131.561 12.7109 131.346 12.8151 131.164 13.0234C130.982 13.2188 130.845 13.4531 130.754 13.7266C130.676 13.987 130.637 14.2474 130.637 14.5078C130.637 14.7812 130.676 15.0547 130.754 15.3281C130.845 15.5885 130.982 15.8229 131.164 16.0312C131.346 16.2266 131.561 16.3307 131.809 16.3438H139.309C139.673 16.3438 139.979 16.474 140.227 16.7344C140.487 16.9818 140.617 17.2878 140.617 17.6523C140.617 18.0169 140.487 18.3229 140.227 18.5703C139.979 18.8307 139.673 18.9609 139.309 18.9609H132.238ZM146.672 18.9609C145.526 18.9219 144.66 18.6549 144.074 18.1602C143.488 17.6523 143.065 17.0859 142.805 16.4609C142.544 15.8229 142.414 15.1784 142.414 14.5273C142.414 13.8503 142.538 13.1992 142.785 12.5742C143.046 11.9362 143.469 11.3698 144.055 10.875C144.654 10.3672 145.409 10.1068 146.32 10.0938H153.742C154.107 10.0938 154.413 10.2174 154.66 10.4648C154.921 10.6992 155.051 10.9857 155.051 11.3242C155.051 11.6758 154.921 11.9753 154.66 12.2227C154.413 12.457 154.107 12.5742 153.742 12.5742H146.438C146.151 12.5742 145.897 12.6719 145.676 12.8672C145.467 13.0625 145.311 13.3164 145.207 13.6289C145.116 13.9414 145.07 14.2474 145.07 14.5469C145.07 14.8724 145.116 15.1914 145.207 15.5039C145.311 15.8164 145.467 16.0703 145.676 16.2656C145.897 16.4479 146.151 16.5456 146.438 16.5586H153.742C154.107 16.5586 154.413 16.6758 154.66 16.9102C154.921 17.1445 155.051 17.4245 155.051 17.75C155.051 18.0885 154.921 18.375 154.66 18.6094C154.413 18.8438 154.107 18.9609 153.742 18.9609H146.672ZM154.816 14.4883C154.816 14.7357 154.706 14.9505 154.484 15.1328C154.289 15.3021 154.042 15.3867 153.742 15.3867H147.355C147.056 15.3867 146.802 15.3021 146.594 15.1328C146.385 14.9505 146.281 14.7357 146.281 14.4883C146.281 14.2539 146.385 14.0456 146.594 13.8633C146.802 13.694 147.056 13.6094 147.355 13.6094H153.742C154.042 13.6094 154.296 13.7005 154.504 13.8828C154.712 14.0521 154.816 14.2539 154.816 14.4883ZM158.645 7.125C158.996 7.13802 159.296 7.26823 159.543 7.51562C159.79 7.75 159.921 8.04297 159.934 8.39453V17.9648C159.855 18.7461 159.426 19.1693 158.645 19.2344C158.28 19.2344 157.961 19.1172 157.688 18.8828C157.427 18.6354 157.297 18.3294 157.297 17.9648V8.39453C157.31 8.02995 157.447 7.73047 157.707 7.49609C157.967 7.2487 158.28 7.125 158.645 7.125Z" fill="#04BFD4"/>
</g>
<defs>
<filter id="filter0_dd_1303_5084" x="0.0664062" y="0.03125" width="165.867" height="29.4609" filterUnits="userSpaceOnUse" color-interpolation-filters="sRGB">
<feFlood flood-opacity="0" result="BackgroundImageFix"/>
<feColorMatrix in="SourceAlpha" type="matrix" values="0 0 0 0 0 0 0 0 0 0 0 0 0 0 0 0 0 0 127 0" result="hardAlpha"/>
<feOffset dx="2" dy="2"/>
<feGaussianBlur stdDeviation="2"/>
<feComposite in2="hardAlpha" operator="out"/>
<feColorMatrix type="matrix" values="0 0 0 0 0 0 0 0 0 0 0 0 0 0 0 0 0 0 0.15 0"/>
<feBlend mode="normal" in2="BackgroundImageFix" result="effect1_dropShadow_1303_5084"/>
<feColorMatrix in="SourceAlpha" type="matrix" values="0 0 0 0 0 0 0 0 0 0 0 0 0 0 0 0 0 0 127 0" result="hardAlpha"/>
<feOffset dx="-2" dy="-2"/>
<feGaussianBlur stdDeviation="2"/>
<feComposite in2="hardAlpha" operator="out"/>
<feColorMatrix type="matrix" values="0 0 0 0 1 0 0 0 0 1 0 0 0 0 1 0 0 0 0.35 0"/>
<feBlend mode="normal" in2="effect1_dropShadow_1303_5084" result="effect2_dropShadow_1303_5084"/>
<feBlend mode="normal" in="SourceGraphic" in2="effect2_dropShadow_1303_5084" result="shape"/>
</filter>
</defs>
</svg>
