<svg width="24" height="24" viewBox="0 0 24 24" fill="none" xmlns="http://www.w3.org/2000/svg">
<path d="M9.75 4.14899C9.55109 4.14899 9.36032 4.228 9.21967 4.36866C9.07902 4.50931 9 4.70007 9 4.89899V8.27399C9 8.4729 8.92098 8.66367 8.78033 8.80432C8.63968 8.94497 8.44891 9.02399 8.25 9.02399H5.25C5.05109 9.02399 4.86032 9.103 4.71967 9.24366C4.57902 9.38431 4.5 9.57507 4.5 9.77399V14.2515C4.5 14.4504 4.57902 14.6412 4.71967 14.7818C4.86032 14.9225 5.05109 15.0015 5.25 15.0015H8.25C8.44891 15.0015 8.63968 15.0805 8.78033 15.2212C8.92098 15.3618 9 15.5526 9 15.7515V18.7515C9 18.9504 9.07902 19.1412 9.21967 19.2818C9.36032 19.4225 9.55109 19.5015 9.75 19.5015H14.25C14.4489 19.5015 14.6397 19.4225 14.7803 19.2818C14.921 19.1412 15 18.9504 15 18.7515V15.7515C15 15.5526 15.079 15.3618 15.2197 15.2212C15.3603 15.0805 15.5511 15.0015 15.75 15.0015H18.75C18.9489 15.0015 19.1397 14.9225 19.2803 14.7818C19.421 14.6412 19.5 14.4504 19.5 14.2515V9.75149C19.5 9.55257 19.421 9.36181 19.2803 9.22116C19.1397 9.0805 18.9489 9.00149 18.75 9.00149H15.75C15.5511 9.00149 15.3603 8.92247 15.2197 8.78182C15.079 8.64116 15 8.4504 15 8.25149V4.89899C15 4.70007 14.921 4.50931 14.7803 4.36866C14.6397 4.228 14.4489 4.14899 14.25 4.14899H9.75ZM7.5 4.89899C7.5 4.30225 7.73705 3.72995 8.15901 3.308C8.58097 2.88604 9.15326 2.64899 9.75 2.64899H14.25C14.8467 2.64899 15.419 2.88604 15.841 3.308C16.2629 3.72995 16.5 4.30225 16.5 4.89899V7.49999H18.75C19.3467 7.49999 19.919 7.73704 20.341 8.159C20.7629 8.58095 21 9.15325 21 9.74999V14.25C21 14.8467 20.7629 15.419 20.341 15.841C19.919 16.2629 19.3467 16.5 18.75 16.5H16.5V18.75C16.5 19.3467 16.2629 19.919 15.841 20.341C15.419 20.7629 14.8467 21 14.25 21H9.75C9.15326 21 8.58097 20.7629 8.15901 20.341C7.73705 19.919 7.5 19.3467 7.5 18.75V16.5H5.25C4.65326 16.5 4.08097 16.2629 3.65901 15.841C3.23705 15.419 3 14.8467 3 14.25V9.77549C3 9.17875 3.23705 8.60645 3.65901 8.1845C4.08097 7.76254 4.65326 7.52549 5.25 7.52549H7.5V4.89899Z" fill="#028317"/>
</svg>
