<svg width="24" height="24" viewBox="0 0 24 24" fill="none" xmlns="http://www.w3.org/2000/svg">
<path d="M11 18C9.05 18 7.39567 17.3207 6.037 15.962C4.67833 14.6033 3.99933 12.9493 4 11V5C4 4.45 4.196 3.979 4.588 3.587C4.98 3.195 5.45067 2.99934 6 3H18.5C19.4667 3 20.2917 3.34167 20.975 4.025C21.6583 4.70834 22 5.53333 22 6.5C22 7.46667 21.6583 8.29167 20.975 8.975C20.2917 9.65834 19.4667 10 18.5 10H18V11C18 12.95 17.3207 14.6043 15.962 15.963C14.6033 17.3217 12.9493 18.0007 11 18ZM6 8H16V5H6V8ZM11 16C12.3833 16 13.5627 15.5123 14.538 14.537C15.5133 13.5617 16.0007 12.3827 16 11V10H6V11C6 12.3833 6.48767 13.5627 7.463 14.538C8.43833 15.5133 9.61733 16.0007 11 16ZM18 8H18.5C18.9167 8 19.271 7.854 19.563 7.562C19.855 7.27 20.0007 6.916 20 6.5C20 6.08333 19.854 5.729 19.562 5.437C19.27 5.145 18.916 4.99934 18.5 5H18V8ZM4 21V19H20V21H4Z" fill="#B00303"/>
</svg>
