<svg width="18" height="18" viewBox="0 0 18 18" fill="none" xmlns="http://www.w3.org/2000/svg">
<path d="M12.6333 10.6667C12.7 10.1167 12.75 9.56667 12.75 9C12.75 8.43333 12.7 7.88333 12.6333 7.33333H15.45C15.5833 7.86667 15.6667 8.425 15.6667 9C15.6667 9.575 15.5833 10.1333 15.45 10.6667M11.1583 15.3C11.6583 14.375 12.0417 13.375 12.3083 12.3333H14.7667C13.9593 13.7236 12.6784 14.7767 11.1583 15.3ZM10.95 10.6667H7.04999C6.96666 10.1167 6.91666 9.56667 6.91666 9C6.91666 8.43333 6.96666 7.875 7.04999 7.33333H10.95C11.025 7.875 11.0833 8.43333 11.0833 9C11.0833 9.56667 11.025 10.1167 10.95 10.6667ZM8.99999 15.6333C8.30832 14.6333 7.74999 13.525 7.40832 12.3333H10.5917C10.25 13.525 9.69166 14.6333 8.99999 15.6333ZM5.66666 5.66667H3.23332C4.03237 4.27268 5.31232 3.21791 6.83332 2.7C6.33332 3.625 5.95832 4.625 5.66666 5.66667ZM3.23332 12.3333H5.66666C5.95832 13.375 6.33332 14.375 6.83332 15.3C5.31551 14.7764 4.03736 13.7231 3.23332 12.3333ZM2.54999 10.6667C2.41666 10.1333 2.33332 9.575 2.33332 9C2.33332 8.425 2.41666 7.86667 2.54999 7.33333H5.36666C5.29999 7.88333 5.24999 8.43333 5.24999 9C5.24999 9.56667 5.29999 10.1167 5.36666 10.6667M8.99999 2.35833C9.69166 3.35833 10.25 4.475 10.5917 5.66667H7.40832C7.74999 4.475 8.30832 3.35833 8.99999 2.35833ZM14.7667 5.66667H12.3083C12.0475 4.63455 11.6613 3.63825 11.1583 2.7C12.6917 3.225 13.9667 4.28333 14.7667 5.66667ZM8.99999 0.666668C4.39166 0.666668 0.666656 4.41667 0.666656 9C0.666656 11.2101 1.54463 13.3298 3.10743 14.8926C3.88125 15.6664 4.79991 16.2802 5.81096 16.699C6.82201 17.1178 7.90564 17.3333 8.99999 17.3333C11.2101 17.3333 13.3297 16.4554 14.8925 14.8926C16.4553 13.3298 17.3333 11.2101 17.3333 9C17.3333 7.90565 17.1178 6.82202 16.699 5.81097C16.2802 4.79993 15.6664 3.88127 14.8925 3.10744C14.1187 2.33362 13.2001 1.71979 12.189 1.30101C11.178 0.882216 10.0943 0.666668 8.99999 0.666668Z" fill="#4B4B4B"/>
</svg>
