<svg width="41" height="41" viewBox="0 0 41 41" fill="none" xmlns="http://www.w3.org/2000/svg">
<g clip-path="url(#clip0_1249_4984)">
<path fill-rule="evenodd" clip-rule="evenodd" d="M0 0H2.5625V38.4375H41V41H0V0ZM37.9686 7.97706C38.0989 8.08368 38.2069 8.21494 38.2864 8.36334C38.366 8.51173 38.4155 8.67434 38.4321 8.84189C38.4488 9.00943 38.4323 9.17861 38.3835 9.33976C38.3347 9.50091 38.2547 9.65087 38.1479 9.78106L26.6167 23.8748C26.5033 24.0132 26.3623 24.1262 26.2026 24.2068C26.043 24.2873 25.8682 24.3335 25.6896 24.3425C25.511 24.3514 25.3325 24.3228 25.1655 24.2586C24.9986 24.1944 24.847 24.096 24.7204 23.9696L18.0912 17.3404L8.72275 30.2221C8.51781 30.4827 8.21983 30.6537 7.89143 30.6992C7.56304 30.7447 7.22979 30.6611 6.96173 30.4661C6.69366 30.271 6.51165 29.9796 6.45394 29.6531C6.39623 29.3267 6.46731 28.9905 6.65225 28.7154L16.9023 14.6216C17.011 14.4718 17.151 14.3473 17.3126 14.2567C17.4741 14.1661 17.6534 14.1117 17.838 14.0971C18.0226 14.0824 18.2082 14.108 18.382 14.172C18.5558 14.2361 18.7136 14.337 18.8446 14.4679L25.5302 21.156L36.1646 8.15644C36.2712 8.02613 36.4024 7.91812 36.5508 7.83858C36.6992 7.75903 36.8618 7.70952 37.0294 7.69286C37.1969 7.6762 37.3661 7.69272 37.5273 7.74149C37.6884 7.79026 37.8384 7.87031 37.9686 7.97706Z" fill="#04BFD4"/>
</g>
<defs>
<clipPath id="clip0_1249_4984">
<rect width="41" height="41" fill="white"/>
</clipPath>
</defs>
</svg>
