<svg width="14" height="18" viewBox="0 0 14 18" fill="none" xmlns="http://www.w3.org/2000/svg">
<path d="M4.5 7.75C4.5 7.08696 4.76339 6.45107 5.23223 5.98223C5.70107 5.51339 6.33696 5.25 7 5.25C7.66304 5.25 8.29893 5.51339 8.76777 5.98223C9.23661 6.45107 9.5 7.08696 9.5 7.75C9.5 8.41304 9.23661 9.04893 8.76777 9.51777C8.29893 9.98661 7.66304 10.25 7 10.25C6.33696 10.25 5.70107 9.98661 5.23223 9.51777C4.76339 9.04893 4.5 8.41304 4.5 7.75ZM7 6.5C6.66848 6.5 6.35054 6.6317 6.11612 6.86612C5.8817 7.10054 5.75 7.41848 5.75 7.75C5.75 8.08152 5.8817 8.39946 6.11612 8.63388C6.35054 8.8683 6.66848 9 7 9C7.33152 9 7.64946 8.8683 7.88388 8.63388C8.1183 8.39946 8.25 8.08152 8.25 7.75C8.25 7.41848 8.1183 7.10054 7.88388 6.86612C7.64946 6.6317 7.33152 6.5 7 6.5ZM4.11875 11.5C3.705 11.5 3.25625 11.7975 3.21875 12.3212C3.19 12.715 3.225 13.4737 3.79375 14.1375C4.37 14.8125 5.38 15.25 7 15.25C8.62 15.25 9.63 14.8125 10.2075 14.1375C10.775 13.4737 10.81 12.715 10.7825 12.3212C10.745 11.7962 10.295 11.5 9.88125 11.5H4.11875ZM4.7425 13.325C4.60368 13.1612 4.51284 12.9622 4.48 12.75H9.52C9.4871 12.9622 9.39626 13.1612 9.2575 13.325C9.0025 13.6213 8.41 14 7 14C5.59 14 4.9975 13.6213 4.7425 13.325ZM10.6425 1.5H11.375C11.8723 1.5 12.3492 1.69754 12.7008 2.04918C13.0525 2.40081 13.25 2.87772 13.25 3.375V15.875C13.25 16.3723 13.0525 16.8492 12.7008 17.2008C12.3492 17.5525 11.8723 17.75 11.375 17.75H2.625C2.12772 17.75 1.65081 17.5525 1.29917 17.2008C0.947544 16.8492 0.75 16.3723 0.75 15.875V3.375C0.75 2.87772 0.947544 2.40081 1.29917 2.04918C1.65081 1.69754 2.12772 1.5 2.625 1.5H3.35625C3.48555 1.13428 3.7251 0.817661 4.04189 0.593785C4.35867 0.36991 4.73709 0.249797 5.125 0.25H8.875C9.26291 0.249797 9.64133 0.36991 9.95811 0.593785C10.2749 0.817661 10.5144 1.13428 10.6438 1.5M3.3575 2.75H2.625C2.45924 2.75 2.30027 2.81585 2.18306 2.93306C2.06585 3.05027 2 3.20924 2 3.375V15.875C2 16.0408 2.06585 16.1997 2.18306 16.3169C2.30027 16.4342 2.45924 16.5 2.625 16.5H11.375C11.5408 16.5 11.6997 16.4342 11.8169 16.3169C11.9342 16.1997 12 16.0408 12 15.875V3.375C12 3.20924 11.9342 3.05027 11.8169 2.93306C11.6997 2.81585 11.5408 2.75 11.375 2.75H10.6438C10.5144 3.11572 10.2749 3.43234 9.95811 3.65622C9.64133 3.88009 9.26291 4.0002 8.875 4H5.125C4.73709 4.0002 4.35867 3.88009 4.04189 3.65622C3.7251 3.43234 3.4868 3.11572 3.3575 2.75ZM4.5 2.125C4.5 2.29076 4.56585 2.44973 4.68306 2.56694C4.80027 2.68415 4.95924 2.75 5.125 2.75H8.875C9.04076 2.75 9.19973 2.68415 9.31694 2.56694C9.43415 2.44973 9.5 2.29076 9.5 2.125C9.5 1.95924 9.43415 1.80027 9.31694 1.68306C9.19973 1.56585 9.04076 1.5 8.875 1.5H5.125C4.95924 1.5 4.80027 1.56585 4.68306 1.68306C4.56585 1.80027 4.5 1.95924 4.5 2.125Z" fill="#4B4B4B"/>
</svg>
