<svg width="18" height="21" viewBox="0 0 18 21" fill="none" xmlns="http://www.w3.org/2000/svg">
<path fill-rule="evenodd" clip-rule="evenodd" d="M4.5 9C4.5 7.74022 5.00045 6.53204 5.89124 5.64124C6.78204 4.75045 7.99022 4.25 9.25 4.25C10.5098 4.25 11.718 4.75045 12.6088 5.64124C13.4996 6.53204 14 7.74022 14 9C14 10.2598 13.4996 11.468 12.6088 12.3588C11.718 13.2496 10.5098 13.75 9.25 13.75C7.99022 13.75 6.78204 13.2496 5.89124 12.3588C5.00045 11.468 4.5 10.2598 4.5 9ZM9.25 5.75C8.38805 5.75 7.5614 6.09241 6.9519 6.7019C6.34241 7.3114 6 8.13805 6 9C6 9.86195 6.34241 10.6886 6.9519 11.2981C7.5614 11.9076 8.38805 12.25 9.25 12.25C10.112 12.25 10.9386 11.9076 11.5481 11.2981C12.1576 10.6886 12.5 9.86195 12.5 9C12.5 8.13805 12.1576 7.3114 11.5481 6.7019C10.9386 6.09241 10.112 5.75 9.25 5.75Z" fill="#CB0000"/>
<path fill-rule="evenodd" clip-rule="evenodd" d="M0.773999 7.857C0.944925 5.7838 1.88923 3.85069 3.41941 2.44147C4.9496 1.03226 6.95377 0.249994 9.034 0.25H9.466C11.5462 0.249994 13.5504 1.03226 15.0806 2.44147C16.6108 3.85069 17.5551 5.7838 17.726 7.857C17.9162 10.1663 17.2028 12.4593 15.736 14.253L10.943 20.114C10.7379 20.3648 10.4796 20.567 10.1868 20.7057C9.894 20.8445 9.57402 20.9165 9.25 20.9165C8.92597 20.9165 8.606 20.8445 8.31321 20.7057C8.02041 20.567 7.76212 20.3648 7.557 20.114L2.764 14.253C1.29711 12.4593 0.583684 10.1663 0.773999 7.857ZM9.034 1.75C7.33048 1.75026 5.68933 2.39103 4.43632 3.54512C3.18331 4.69921 2.41003 6.28225 2.27 7.98C2.1116 9.90186 2.70528 11.8102 3.926 13.303L8.719 19.165C8.78343 19.2439 8.86459 19.3074 8.9566 19.351C9.04861 19.3947 9.14917 19.4173 9.251 19.4173C9.35283 19.4173 9.45339 19.3947 9.5454 19.351C9.63741 19.3074 9.71857 19.2439 9.783 19.165L14.576 13.303C15.796 11.8099 16.389 9.90159 16.23 7.98C16.0899 6.28208 15.3165 4.6989 14.0633 3.54478C12.8101 2.39066 11.1687 1.75001 9.465 1.75H9.033H9.034Z" fill="#CB0000"/>
</svg>
