<svg width="185" height="86" viewBox="0 0 185 86" fill="none" xmlns="http://www.w3.org/2000/svg">
<g filter="url(#filter0_dd_983_3673)">
<path d="M60.125 6C65.9583 6.33333 70.75 8.58333 74.5 12.75C78.25 16.8333 80.9583 21.5 82.625 26.75C84.2917 32 85.125 37.375 85.125 42.875C85.125 48.375 84.2917 53.75 82.625 59C81.0417 64.25 78.3333 68.9583 74.5 73.125C70.75 77.2083 65.9583 79.4167 60.125 79.75H14.125C11.875 79.6667 9.95833 78.875 8.375 77.375C6.875 75.7917 6.08333 73.875 6 71.625V40.625C6.08333 38.2917 6.95833 36.375 8.625 34.875C10.2917 33.2917 12.2917 32.5 14.625 32.5C16.875 32.5833 18.7917 33.4167 20.375 35C21.9583 36.5 22.7917 38.375 22.875 40.625V59.625C22.875 61.875 24.0417 63 26.375 63H55.875C59.0417 62.8333 61.6667 61.625 63.75 59.375C65.8333 57.125 67.3333 54.5833 68.25 51.75C69.25 48.8333 69.75 45.875 69.75 42.875C69.75 39.875 69.25 36.9583 68.25 34.125C67.3333 31.2083 65.8333 28.625 63.75 26.375C61.6667 24.125 59.0417 22.9167 55.875 22.75H14.125C9.125 22.3333 6.41667 19.625 6 14.625C6 12.2917 6.75 10.2917 8.25 8.625C9.83333 6.95833 11.7917 6.08333 14.125 6H60.125ZM122 6H127.75H170.25C172.583 6.08333 174.5 6.95833 176 8.625C177.583 10.2917 178.375 12.2917 178.375 14.625C177.958 19.625 175.25 22.3333 170.25 22.75H126.25C123.083 22.9167 120.458 24.125 118.375 26.375C116.292 28.625 114.75 31.2083 113.75 34.125C112.833 36.9583 112.375 39.875 112.375 42.875C112.375 45.875 112.833 48.8333 113.75 51.75C114.75 54.5833 116.292 57.125 118.375 59.375C120.458 61.625 123.083 62.8333 126.25 63H170.25C172.583 63.0833 174.5 63.9583 176 65.625C177.583 67.2917 178.375 69.2917 178.375 71.625C178.292 73.875 177.458 75.7917 175.875 77.375C174.375 78.875 172.5 79.6667 170.25 79.75H124.375H122C116.167 79.4167 111.333 77.2083 107.5 73.125C103.75 68.9583 101.042 64.25 99.375 59C97.7917 53.75 97 48.375 97 42.875C97 37.375 97.8333 32 99.5 26.75C101.167 21.5 103.875 16.8333 107.625 12.75C111.375 8.58333 116.167 6.33333 122 6ZM178.125 42.375C178.125 44.7083 177.292 46.6667 175.625 48.25C174.042 49.9167 172.083 50.75 169.75 50.75H132C129.667 50.75 127.667 49.9583 126 48.375C124.417 46.7083 123.625 44.7083 123.625 42.375C123.625 40.0417 124.417 38.0417 126 36.375C127.667 34.7917 129.667 34 132 34H169.75C172.083 34 174.042 34.8333 175.625 36.5C177.292 38.0833 178.125 40.0417 178.125 42.375Z" fill="#E8E9EE"/>
</g>
<defs>
<filter id="filter0_dd_983_3673" x="0" y="0" width="184.375" height="85.75" filterUnits="userSpaceOnUse" color-interpolation-filters="sRGB">
<feFlood flood-opacity="0" result="BackgroundImageFix"/>
<feColorMatrix in="SourceAlpha" type="matrix" values="0 0 0 0 0 0 0 0 0 0 0 0 0 0 0 0 0 0 127 0" result="hardAlpha"/>
<feOffset dx="2" dy="2"/>
<feGaussianBlur stdDeviation="2"/>
<feComposite in2="hardAlpha" operator="out"/>
<feColorMatrix type="matrix" values="0 0 0 0 0 0 0 0 0 0 0 0 0 0 0 0 0 0 0.15 0"/>
<feBlend mode="normal" in2="BackgroundImageFix" result="effect1_dropShadow_983_3673"/>
<feColorMatrix in="SourceAlpha" type="matrix" values="0 0 0 0 0 0 0 0 0 0 0 0 0 0 0 0 0 0 127 0" result="hardAlpha"/>
<feOffset dx="-2" dy="-2"/>
<feGaussianBlur stdDeviation="2"/>
<feComposite in2="hardAlpha" operator="out"/>
<feColorMatrix type="matrix" values="0 0 0 0 1 0 0 0 0 1 0 0 0 0 1 0 0 0 0.35 0"/>
<feBlend mode="normal" in2="effect1_dropShadow_983_3673" result="effect2_dropShadow_983_3673"/>
<feBlend mode="normal" in="SourceGraphic" in2="effect2_dropShadow_983_3673" result="shape"/>
</filter>
</defs>
</svg>
