<svg width="20" height="20" viewBox="0 0 20 20" fill="none" xmlns="http://www.w3.org/2000/svg">
<path d="M8.33332 9.99992C7.41666 9.99992 6.63193 9.67353 5.97916 9.02075C5.32638 8.36797 4.99999 7.58325 4.99999 6.66659C4.99999 5.74992 5.32638 4.9652 5.97916 4.31242C6.63193 3.65964 7.41666 3.33325 8.33332 3.33325C9.24999 3.33325 10.0347 3.65964 10.6875 4.31242C11.3403 4.9652 11.6667 5.74992 11.6667 6.66659C11.6667 7.58325 11.3403 8.36797 10.6875 9.02075C10.0347 9.67353 9.24999 9.99992 8.33332 9.99992ZM1.66666 16.6666V14.3333C1.66666 13.8749 1.78471 13.4444 2.02082 13.0416C2.25693 12.6388 2.58332 12.3333 2.99999 12.1249C3.70832 11.7638 4.50693 11.4583 5.39582 11.2083C6.28471 10.9583 7.26388 10.8333 8.33332 10.8333H8.62499C8.70832 10.8333 8.79166 10.8471 8.87499 10.8749C8.76388 11.1249 8.67027 11.3855 8.59416 11.6566C8.51805 11.9277 8.45888 12.2088 8.41666 12.4999H8.33332C7.34721 12.4999 6.46193 12.6249 5.67749 12.8749C4.89305 13.1249 4.25055 13.3749 3.74999 13.6249C3.62499 13.6944 3.52416 13.7916 3.44749 13.9166C3.37082 14.0416 3.33277 14.1805 3.33332 14.3333V14.9999H8.58332C8.66666 15.2916 8.77777 15.5799 8.91666 15.8649C9.05555 16.1499 9.20832 16.4171 9.37499 16.6666H1.66666ZM13.3333 17.4999L13.0833 16.2499C12.9167 16.1805 12.7605 16.1077 12.615 16.0316C12.4694 15.9555 12.32 15.8616 12.1667 15.7499L10.9583 16.1249L10.125 14.7083L11.0833 13.8749C11.0555 13.6805 11.0417 13.4999 11.0417 13.3333C11.0417 13.1666 11.0555 12.986 11.0833 12.7916L10.125 11.9583L10.9583 10.5416L12.1667 10.9166C12.3194 10.8055 12.4689 10.7119 12.615 10.6358C12.7611 10.5596 12.9172 10.4866 13.0833 10.4166L13.3333 9.16659H15L15.25 10.4166C15.4167 10.486 15.573 10.5624 15.7192 10.6458C15.8653 10.7291 16.0144 10.8333 16.1667 10.9583L17.375 10.5416L18.2083 11.9999L17.25 12.8333C17.2778 12.9999 17.2917 13.1735 17.2917 13.3541C17.2917 13.5346 17.2778 13.7083 17.25 13.8749L18.2083 14.7083L17.375 16.1249L16.1667 15.7499C16.0139 15.861 15.8647 15.9549 15.7192 16.0316C15.5736 16.1083 15.4172 16.181 15.25 16.2499L15 17.4999H13.3333ZM14.1667 14.9999C14.625 14.9999 15.0175 14.8369 15.3442 14.5108C15.6708 14.1846 15.8339 13.7921 15.8333 13.3333C15.8333 12.8749 15.6703 12.4827 15.3442 12.1566C15.018 11.8305 14.6255 11.6671 14.1667 11.6666C13.7083 11.6666 13.3161 11.8299 12.99 12.1566C12.6639 12.4833 12.5005 12.8755 12.5 13.3333C12.5 13.7916 12.6633 14.1841 12.99 14.5108C13.3167 14.8374 13.7089 15.0005 14.1667 14.9999ZM8.33332 8.33325C8.79166 8.33325 9.18416 8.1702 9.51082 7.84409C9.83749 7.51797 10.0005 7.12547 9.99999 6.66659C9.99999 6.20825 9.83694 5.81603 9.51082 5.48992C9.18471 5.16381 8.79221 5.00047 8.33332 4.99992C7.87499 4.99992 7.48277 5.16325 7.15666 5.48992C6.83055 5.81659 6.66721 6.20881 6.66666 6.66659C6.66666 7.12492 6.82999 7.51742 7.15666 7.84409C7.48332 8.17075 7.87555 8.33381 8.33332 8.33325Z" fill="#4B4B4B"/>
</svg>
