<svg width="20" height="20" viewBox="0 0 20 20" fill="none" xmlns="http://www.w3.org/2000/svg">
<path d="M15.4167 16.2497H4.58333L2.08333 18.7497V4.58301C2.08333 3.20801 3.20833 2.08301 4.58333 2.08301H15.4167C16.7917 2.08301 17.9167 3.20801 17.9167 4.58301V13.7497C17.9167 15.1247 16.7917 16.2497 15.4167 16.2497Z" fill="#009688"/>
<path d="M10 10.417C10.6904 10.417 11.25 9.85735 11.25 9.16699C11.25 8.47664 10.6904 7.91699 10 7.91699C9.30964 7.91699 8.75 8.47664 8.75 9.16699C8.75 9.85735 9.30964 10.417 10 10.417Z" fill="white"/>
<path d="M14.1667 10.417C14.857 10.417 15.4167 9.85735 15.4167 9.16699C15.4167 8.47664 14.857 7.91699 14.1667 7.91699C13.4763 7.91699 12.9167 8.47664 12.9167 9.16699C12.9167 9.85735 13.4763 10.417 14.1667 10.417Z" fill="white"/>
<path d="M5.83333 10.417C6.52369 10.417 7.08333 9.85735 7.08333 9.16699C7.08333 8.47664 6.52369 7.91699 5.83333 7.91699C5.14298 7.91699 4.58333 8.47664 4.58333 9.16699C4.58333 9.85735 5.14298 10.417 5.83333 10.417Z" fill="white"/>
</svg>
