<svg width="24" height="24" viewBox="0 0 24 24" fill="none" xmlns="http://www.w3.org/2000/svg">
<path d="M23.0055 11.3997C23.0303 11.3112 23.0595 11.2249 23.0805 11.1349C23.085 11.1169 23.0865 11.0989 23.091 11.0809C23.3053 10.216 23.3044 9.31188 23.0886 8.44742C22.8727 7.58296 22.4484 6.78453 21.8528 6.12191C21.3035 5.38333 20.5879 4.78465 19.7639 4.37443C18.94 3.96421 18.0309 3.75402 17.1105 3.76091H17.0715C16.9965 3.76091 16.9125 3.76616 16.833 3.76841H16.7423C15.1572 3.85586 13.5816 4.07004 12.0308 4.40891L8.673 3.87266H8.64675C7.04748 3.59636 5.40173 3.86022 3.969 4.62266C3.16184 5.10911 2.46869 5.76339 1.9365 6.54116L1.90575 6.58241L1.887 6.60866C1.18294 7.65308 0.800094 8.88079 0.7857 10.1403C0.771306 11.3998 1.126 12.6359 1.806 13.6962C1.79175 13.7217 1.7835 13.7502 1.77 13.7764C1.705 13.9064 1.6496 14.041 1.60425 14.1792C1.58025 14.2542 1.56225 14.3337 1.545 14.4117C1.5315 14.4754 1.518 14.5384 1.509 14.6022C1.49975 14.6816 1.49424 14.7614 1.4925 14.8414C1.4925 14.9059 1.485 14.9689 1.488 15.0327C1.49325 15.1167 1.503 15.1999 1.5165 15.2832C1.5255 15.3424 1.53 15.4017 1.5435 15.4602C1.566 15.5524 1.596 15.6432 1.6305 15.7317C1.64775 15.7789 1.659 15.8277 1.68 15.8742C1.7415 16.0114 1.8165 16.1412 1.905 16.2627C2.24433 16.7485 2.74503 17.0983 3.318 17.2497C3.29662 17.5695 3.34986 17.8899 3.47351 18.1856C3.59716 18.4813 3.78784 18.7442 4.0305 18.9537C4.46028 19.3302 4.98739 19.5782 5.5515 19.6692C5.66775 20.0464 5.87175 20.3907 6.14625 20.6742C6.52075 21.0802 7.02689 21.3406 7.575 21.4092C7.7055 21.8539 7.953 22.2559 8.292 22.5717C8.70975 22.9827 9.26925 23.2167 9.855 23.2242C10.2858 23.2221 10.7089 23.1101 11.0843 22.8987C11.6423 23.2182 12.2963 23.3262 12.9278 23.2032C13.2592 23.1425 13.5733 23.0097 13.8477 22.8141C14.122 22.6185 14.3501 22.365 14.5155 22.0714C14.5313 22.0467 14.5403 22.0249 14.5545 22.0002C15.192 22.1307 15.8558 22.0159 16.413 21.6792C16.9031 21.4025 17.2761 20.9575 17.463 20.4267C18.1335 20.4357 18.783 20.1942 19.2833 19.7479C19.5574 19.5083 19.7702 19.2067 19.9041 18.8681C20.0379 18.5296 20.0889 18.1639 20.0528 17.8017C20.0528 17.7807 20.0475 17.7642 20.046 17.7439C20.4374 17.6266 20.7895 17.4049 21.0645 17.1027C21.42 16.7278 21.6489 16.2508 21.7188 15.7389C21.7888 15.2271 21.6963 14.7062 21.4545 14.2497C22.1288 13.4706 22.639 12.5635 22.9545 11.5827C22.9725 11.5249 22.9875 11.4619 23.0055 11.3997ZM21.7215 10.1247C21.6841 10.5018 21.6012 10.8729 21.4748 11.2302L21.4508 11.3052C21.2015 11.9724 20.842 12.593 20.3873 13.1412C18.0345 11.0877 14.6123 8.09066 14.331 7.82216C14.0061 7.51121 13.5747 7.33627 13.125 7.33316C12.9855 7.33195 12.8467 7.35193 12.7133 7.39241C12.2378 7.54241 11.0693 7.91741 10.0493 8.29616C9.65925 8.44091 9.21375 8.07116 9.078 7.75616C8.988 7.56716 8.973 7.35116 9.0345 7.15166C9.15675 6.93041 9.36225 6.76616 9.60525 6.69566C11.9124 5.88462 14.3229 5.40484 16.7648 5.27066H16.8555C16.9388 5.27066 17.0213 5.26466 17.0978 5.26316C17.6579 5.25394 18.2141 5.35935 18.732 5.57291C19.5001 5.92302 20.1744 6.44986 20.7 7.11041C21.1691 7.64134 21.4972 8.28173 21.654 8.97266L21.6608 9.00716C21.6968 9.19179 21.7197 9.37876 21.729 9.56666C21.7313 9.62741 21.735 9.70391 21.735 9.77141C21.735 9.88016 21.735 9.98816 21.7223 10.0954L21.7215 10.1247ZM3.00525 15.1189C3 15.0867 3 15.0514 3 15.0177C2.99173 14.9454 2.99173 14.8724 3 14.8002C3.00828 14.7576 3.01905 14.7155 3.03225 14.6742C3.04725 14.6074 3.06975 14.5422 3.09675 14.4799C3.1215 14.4349 3.15 14.3914 3.1815 14.3509C3.22614 14.2778 3.28037 14.2109 3.34275 14.1522L3.34725 14.1484L4.758 12.9522C4.85173 12.88 4.95877 12.827 5.073 12.7962C5.18723 12.7654 5.30641 12.7575 5.42371 12.7728C5.54102 12.7881 5.65415 12.8264 5.75664 12.8855C5.85913 12.9446 5.94896 13.0233 6.021 13.1172C6.07346 13.194 6.10752 13.2818 6.12052 13.3739C6.13353 13.466 6.12514 13.5598 6.096 13.6482L3.8835 15.8037C3.73077 15.8064 3.57994 15.7695 3.44573 15.6965C3.31152 15.6236 3.19852 15.5171 3.11775 15.3874C3.06202 15.3067 3.02371 15.2152 3.00525 15.1189ZM4.89225 16.9152L7.32 14.5497L7.30875 14.5384C7.44536 14.4704 7.59966 14.4463 7.7505 14.4694C7.94325 14.5219 8.11725 14.6299 8.25 14.7799C8.382 14.8924 8.4705 15.0469 8.5005 15.2179C8.51166 15.3911 8.4737 15.564 8.391 15.7167C8.38335 15.7375 8.37684 15.7588 8.3715 15.7804L5.91825 18.1707C5.74612 18.1782 5.57439 18.1486 5.4147 18.0839C5.25501 18.0192 5.11111 17.9209 4.99275 17.7957C4.89535 17.673 4.83431 17.5254 4.81654 17.3698C4.79878 17.2141 4.82501 17.0566 4.89225 16.9152ZM6.981 19.2289L9.516 16.7622C9.67725 16.7944 9.825 16.8769 9.9375 16.9977C10.093 17.1338 10.2012 17.3158 10.2465 17.5174C10.2583 17.6041 10.2545 17.6923 10.2353 17.7777L8.043 19.9114C7.89675 19.9386 7.74598 19.928 7.60492 19.8808C7.46387 19.8335 7.33716 19.7512 7.23675 19.6414C7.11962 19.5264 7.0319 19.3849 6.981 19.2289ZM9.33375 21.4879C9.19811 21.3681 9.09099 21.2195 9.02025 21.0529L11.091 19.0377C11.2388 19.0864 11.3738 19.1667 11.487 19.2724C11.5927 19.3569 11.6725 19.4694 11.7173 19.5972C11.7427 19.6917 11.7427 19.7913 11.7173 19.8859C11.6236 20.1884 11.4675 20.468 11.259 20.7064L10.692 21.3664H10.6965C10.6778 21.3784 10.6568 21.3837 10.6395 21.3972C10.4281 21.5902 10.1559 21.7034 9.87 21.7174C9.66811 21.714 9.4756 21.6316 9.33375 21.4879ZM12.6893 21.7182C12.5783 21.7354 12.4665 21.7407 12.3548 21.7332L12.4103 21.6687L12.4283 21.6469L12.429 21.6477C12.6563 21.3667 12.8487 21.0592 13.002 20.7319L13.3335 21.0829C13.3064 21.1536 13.2738 21.222 13.236 21.2877C13.1825 21.3955 13.1057 21.4901 13.0112 21.5646C12.9166 21.639 12.8066 21.6915 12.6893 21.7182ZM17.4893 18.9244L16.155 17.4462C16.0404 17.3121 15.8823 17.2228 15.7083 17.1938C15.5343 17.1649 15.3558 17.1983 15.204 17.2881C15.0522 17.3778 14.937 17.5183 14.8785 17.6847C14.8201 17.851 14.8222 18.0327 14.8845 18.1977C14.9192 18.2912 14.9723 18.3769 15.0405 18.4497L16.1175 19.6497C16.11 19.7262 16.0943 19.8019 16.0703 19.8747C16.0078 20.0871 15.8653 20.267 15.6728 20.3764C15.4383 20.5302 15.1537 20.5882 14.8778 20.5384L13.9778 19.5829C13.8806 19.4807 13.7564 19.4082 13.6197 19.3738C13.4829 19.3394 13.3392 19.3446 13.2053 19.3887C13.1936 19.3158 13.1779 19.2437 13.158 19.1727C13.0342 18.7808 12.8039 18.431 12.4928 18.1624C12.2748 17.9635 12.0251 17.8026 11.754 17.6862C11.7592 17.5466 11.7504 17.4069 11.7278 17.2692C11.6311 16.7584 11.3744 16.2917 10.995 15.9364C10.7192 15.6571 10.3782 15.4509 10.0028 15.3364C10.0065 15.2359 10.0028 15.1362 9.9915 15.0364C9.92141 14.5313 9.67994 14.0655 9.3075 13.7172C8.96836 13.3621 8.53269 13.1142 8.05425 13.0039C7.8915 12.9725 7.72551 12.9612 7.56 12.9702C7.50114 12.6916 7.38211 12.4292 7.21125 12.2014C7.01871 11.9514 6.77874 11.7417 6.50508 11.5846C6.23142 11.4274 5.92945 11.3257 5.61645 11.2854C5.30344 11.245 4.98556 11.2668 4.68099 11.3495C4.37642 11.4322 4.09115 11.5741 3.8415 11.7672L3.81525 11.7882L2.889 12.5682C2.45469 11.7773 2.24688 10.8819 2.28843 9.98055C2.32997 9.07919 2.61927 8.20675 3.1245 7.45916L3.14025 7.43666C3.55091 6.82436 4.08955 6.30849 4.719 5.92466C5.86723 5.32666 7.18202 5.12846 8.4555 5.36141L8.8035 5.41691C8.28936 5.64858 7.87867 6.06167 7.65 6.57716C7.53946 6.85998 7.48688 7.16214 7.49539 7.46568C7.50389 7.76922 7.5733 8.06796 7.6995 8.34416C7.92416 8.88755 8.34315 9.32779 8.87477 9.57904C9.40639 9.83029 10.0125 9.87454 10.575 9.70316C11.565 9.33641 12.7005 8.96816 13.125 8.83391C13.1588 8.83279 13.1923 8.8393 13.2232 8.85293C13.2541 8.86656 13.2816 8.88697 13.3035 8.91266C13.6703 9.25766 18.0975 13.1329 19.947 14.7447L20.097 14.8729C20.2135 15.0615 20.2633 15.2838 20.2384 15.5041C20.2135 15.7244 20.1154 15.93 19.9598 16.0879C19.8529 16.2031 19.7125 16.2818 19.5585 16.3129L18.2588 14.9952C18.1173 14.8605 17.9291 14.7861 17.7338 14.7876C17.5385 14.7891 17.3514 14.8664 17.212 15.0033C17.0727 15.1401 16.9919 15.3257 16.9868 15.5209C16.9817 15.7162 17.0527 15.9058 17.1848 16.0497L18.4268 17.3082C18.432 17.3307 18.438 17.3532 18.4448 17.3749L18.4538 17.3982C18.5101 17.5582 18.5441 17.7253 18.555 17.8947C18.5758 18.0232 18.5648 18.155 18.5228 18.2783C18.4808 18.4016 18.4092 18.5127 18.3143 18.6019C18.09 18.8119 17.7938 18.9274 17.487 18.9244H17.4893Z" fill="white"/>
</svg>
