<svg width="25" height="25" viewBox="0 0 25 25" fill="none" xmlns="http://www.w3.org/2000/svg">
<path d="M12.5 22.0238C17.7599 22.0238 22.0238 17.7599 22.0238 12.5C22.0238 7.24015 17.7599 2.9762 12.5 2.9762C7.24015 2.9762 2.9762 7.24015 2.9762 12.5C2.9762 17.7599 7.24015 22.0238 12.5 22.0238Z" stroke="#7E7E7E" stroke-linecap="round" stroke-linejoin="round"/>
<path fill-rule="evenodd" clip-rule="evenodd" d="M12.5 13.6905C13.0953 13.6905 13.6905 13.0952 13.6905 12.5C13.6905 11.9047 13.0953 11.3095 12.5 11.3095C11.9048 11.3095 11.3107 11.9047 11.3107 12.5C11.3107 13.0952 11.9048 13.6905 12.5 13.6905ZM7.73811 13.6905C8.33335 13.6905 8.92859 13.0952 8.92859 12.5C8.92859 11.9047 8.33335 11.3095 7.73811 11.3095C7.14288 11.3095 6.54883 11.9047 6.54883 12.5C6.54883 13.0952 7.14288 13.6905 7.73811 13.6905ZM17.2619 13.6905C17.8572 13.6905 18.4524 13.0952 18.4524 12.5C18.4524 11.9047 17.8572 11.3095 17.2619 11.3095C16.6667 11.3095 16.0726 11.9047 16.0726 12.5C16.0726 13.0952 16.6667 13.6905 17.2619 13.6905Z" fill="#7E7E7E"/>
</svg>
