<svg width="24" height="24" viewBox="0 0 24 24" fill="none" xmlns="http://www.w3.org/2000/svg">
<path d="M9.5 13C9.78333 13 10.021 12.904 10.213 12.712C10.405 12.52 10.5007 12.2827 10.5 12C10.5 11.7167 10.404 11.479 10.212 11.287C10.02 11.095 9.78267 10.9993 9.5 11C9.21667 11 8.979 11.096 8.787 11.288C8.595 11.48 8.49933 11.7173 8.5 12C8.5 12.2833 8.596 12.521 8.788 12.713C8.98 12.905 9.21733 13.0007 9.5 13ZM13 13C13.2833 13 13.521 12.904 13.713 12.712C13.905 12.52 14.0007 12.2827 14 12C14 11.7167 13.904 11.479 13.712 11.287C13.52 11.095 13.2827 10.9993 13 11C12.7167 11 12.479 11.096 12.287 11.288C12.095 11.48 11.9993 11.7173 12 12C12 12.2833 12.096 12.521 12.288 12.713C12.48 12.905 12.7173 13.0007 13 13ZM16.5 13C16.7833 13 17.021 12.904 17.213 12.712C17.405 12.52 17.5007 12.2827 17.5 12C17.5 11.7167 17.404 11.479 17.212 11.287C17.02 11.095 16.7827 10.9993 16.5 11C16.2167 11 15.979 11.096 15.787 11.288C15.595 11.48 15.4993 11.7173 15.5 12C15.5 12.2833 15.596 12.521 15.788 12.713C15.98 12.905 16.2173 13.0007 16.5 13ZM9 19C8.66667 19 8.354 18.925 8.062 18.775C7.77 18.625 7.53267 18.4167 7.35 18.15L3 12L7.35 5.85C7.53333 5.58333 7.771 5.375 8.063 5.225C8.355 5.075 8.66733 5 9 5H19C19.55 5 20.021 5.196 20.413 5.588C20.805 5.98 21.0007 6.45067 21 7V17C21 17.55 20.804 18.021 20.412 18.413C20.02 18.805 19.5493 19.0007 19 19H9ZM9 17H19V7H9L5.45 12L9 17Z" fill="#4B4B4B"/>
</svg>
