<svg width="14" height="18" viewBox="0 0 14 18" fill="none" xmlns="http://www.w3.org/2000/svg">
<path d="M3.66668 14.0001H10.3333V12.3334H3.66668V14.0001ZM3.66668 10.6667H10.3333V9.00008H3.66668V10.6667ZM2.00001 17.3334C1.54168 17.3334 1.14945 17.1704 0.823343 16.8442C0.497232 16.5181 0.333899 16.1256 0.333344 15.6667V2.33341C0.333344 1.87508 0.496677 1.48286 0.823343 1.15675C1.15001 0.830637 1.54223 0.667304 2.00001 0.666748H8.66668L13.6667 5.66675V15.6667C13.6667 16.1251 13.5036 16.5176 13.1775 16.8442C12.8514 17.1709 12.4589 17.334 12 17.3334H2.00001ZM7.83334 6.50008V2.33341H2.00001V15.6667H12V6.50008H7.83334Z" fill="#4B4B4B"/>
</svg>
