<svg width="24" height="24" viewBox="0 0 24 24" fill="none" xmlns="http://www.w3.org/2000/svg">
<path d="M19.5 7.49958H17.4285C17.9132 6.77799 18.0999 5.89683 17.9495 5.04067C17.799 4.18451 17.3231 3.41978 16.6215 2.90666C15.9198 2.39354 15.0468 2.17184 14.1853 2.28801C13.3238 2.40417 12.5407 2.84918 12 3.52983C11.4593 2.84918 10.6762 2.40417 9.81471 2.28801C8.95323 2.17184 8.08022 2.39354 7.37855 2.90666C6.67687 3.41978 6.20097 4.18451 6.05053 5.04067C5.90009 5.89683 6.08678 6.77799 6.5715 7.49958H4.5C4.10236 7.50017 3.72117 7.6584 3.44 7.93957C3.15882 8.22075 3.0006 8.60193 3 8.99958V11.9996C3.0006 12.3972 3.15882 12.7784 3.44 13.0596C3.72117 13.3408 4.10236 13.499 4.5 13.4996V20.9996C4.5006 21.3972 4.65882 21.7784 4.94 22.0596C5.22117 22.3408 5.60236 22.499 6 22.4996H18C18.3976 22.499 18.7788 22.3408 19.06 22.0596C19.3412 21.7784 19.4994 21.3972 19.5 20.9996V13.4996C19.8976 13.499 20.2788 13.3408 20.56 13.0596C20.8412 12.7784 20.9994 12.3972 21 11.9996V8.99958C20.9994 8.60193 20.8412 8.22075 20.56 7.93957C20.2788 7.6584 19.8976 7.50017 19.5 7.49958ZM12.75 5.62458C12.75 5.25374 12.86 4.89122 13.066 4.58288C13.272 4.27454 13.5649 4.03422 13.9075 3.8923C14.2501 3.75039 14.6271 3.71326 14.9908 3.7856C15.3545 3.85795 15.6886 4.03653 15.9508 4.29875C16.213 4.56097 16.3916 4.89507 16.464 5.25878C16.5363 5.6225 16.4992 5.9995 16.3573 6.34211C16.2154 6.68472 15.975 6.97755 15.6667 7.18358C15.3584 7.38961 14.9958 7.49958 14.625 7.49958H12.75V5.62458ZM9.375 3.74958C9.8721 3.75017 10.3487 3.94791 10.7002 4.29941C11.0517 4.65091 11.2494 5.12748 11.25 5.62458V7.49958H9.375C8.87772 7.49958 8.40081 7.30203 8.04917 6.9504C7.69754 6.59877 7.5 6.12186 7.5 5.62458C7.5 5.12729 7.69754 4.65038 8.04917 4.29875C8.40081 3.94712 8.87772 3.74958 9.375 3.74958ZM4.5 8.99958H11.25V11.9996H4.5V8.99958ZM6 13.4996H11.25V20.9996H6V13.4996ZM18.0007 20.9996H12.75V13.4996H18L18.0007 20.9996ZM12.75 11.9996V8.99958H19.5L19.5007 11.9996H12.75Z" fill="white"/>
</svg>
