<svg width="24" height="24" viewBox="0 0 24 24" fill="none" xmlns="http://www.w3.org/2000/svg">
<path d="M14.25 9.75H19.5V11.25H14.25V9.75ZM14.25 6H22.5V7.5H14.25V6ZM14.25 2.25H22.5V3.75H14.25V2.25ZM8.25 22.5H5.25C4.85254 22.4988 4.4717 22.3404 4.19065 22.0594C3.9096 21.7783 3.75118 21.3975 3.75 21V15.75C3.35254 15.7488 2.9717 15.5904 2.69065 15.3094C2.4096 15.0283 2.25118 14.6475 2.25 14.25V9.75C2.24461 9.45304 2.29912 9.15805 2.41029 8.88263C2.52145 8.60721 2.68699 8.35702 2.897 8.147C3.10702 7.93699 3.35721 7.77146 3.63262 7.66029C3.90804 7.54913 4.20304 7.49461 4.5 7.5H9C9.29696 7.49461 9.59195 7.54913 9.86737 7.66029C10.1428 7.77146 10.393 7.93699 10.603 8.147C10.813 8.35702 10.9785 8.60721 11.0897 8.88263C11.2009 9.15805 11.2554 9.45304 11.25 9.75V14.25C11.2488 14.6475 11.0904 15.0283 10.8093 15.3094C10.5283 15.5904 10.1475 15.7488 9.75 15.75V21C9.74881 21.3975 9.59039 21.7783 9.30935 22.0594C9.0283 22.3404 8.64746 22.4988 8.25 22.5ZM4.5 9C4.39994 8.99399 4.29974 9.00926 4.20602 9.04483C4.1123 9.08039 4.02719 9.13543 3.95631 9.20631C3.88543 9.27719 3.83039 9.3623 3.79483 9.45602C3.75926 9.54974 3.74398 9.64994 3.75 9.75V14.25H5.25V21H8.25V14.25H9.75V9.75C9.75601 9.64994 9.74073 9.54974 9.70517 9.45602C9.66961 9.3623 9.61457 9.27719 9.54369 9.20631C9.47281 9.13543 9.3877 9.08039 9.29398 9.04483C9.20026 9.00926 9.10006 8.99399 9 9H4.5ZM6.75 6.75C6.15665 6.75 5.57663 6.57405 5.08329 6.24441C4.58994 5.91477 4.20542 5.44623 3.97836 4.89805C3.7513 4.34987 3.69189 3.74667 3.80764 3.16473C3.9234 2.58279 4.20912 2.04824 4.62868 1.62868C5.04823 1.20912 5.58278 0.923401 6.16473 0.807646C6.74667 0.69189 7.34987 0.7513 7.89805 0.978363C8.44623 1.20543 8.91476 1.58994 9.24441 2.08329C9.57405 2.57664 9.75 3.15666 9.75 3.75C9.74762 4.54492 9.43079 5.3066 8.8687 5.8687C8.3066 6.43079 7.54492 6.74763 6.75 6.75ZM6.75 2.25C6.45333 2.25 6.16332 2.33797 5.91664 2.5028C5.66997 2.66762 5.47771 2.90189 5.36418 3.17598C5.25065 3.45007 5.22094 3.75167 5.27882 4.04264C5.3367 4.33361 5.47956 4.60088 5.68934 4.81066C5.89912 5.02044 6.16639 5.1633 6.45736 5.22118C6.74833 5.27906 7.04993 5.24935 7.32402 5.13582C7.59811 5.02229 7.83238 4.83003 7.9972 4.58336C8.16202 4.33668 8.25 4.04667 8.25 3.75C8.24881 3.35254 8.09039 2.9717 7.80935 2.69065C7.5283 2.4096 7.14746 2.25119 6.75 2.25Z" fill="white"/>
</svg>
