<svg width="18" height="20" viewBox="0 0 18 20" fill="none" xmlns="http://www.w3.org/2000/svg">
<path d="M13.272 4.008C13.4934 4.38787 13.8337 4.68421 14.2405 4.85118C14.6472 5.01815 15.0976 5.04645 15.522 4.93169C15.9465 4.81693 16.3212 4.56551 16.5884 4.21633C16.8556 3.86715 17.0002 3.43966 17 3C16.9998 2.69293 16.929 2.39001 16.7929 2.11474C16.6568 1.83946 16.4592 1.59921 16.2153 1.41262C15.9714 1.22602 15.6879 1.09809 15.3866 1.03873C15.0853 0.979379 14.7744 0.990196 14.478 1.07035C14.1816 1.1505 13.9076 1.29783 13.6772 1.50092C13.4469 1.70401 13.2665 1.95741 13.1498 2.24148C13.0332 2.52555 12.9836 2.83266 13.0048 3.139C13.026 3.44534 13.1174 3.74269 13.272 4.008ZM13.272 4.008L4.72801 8.992M4.72801 8.992C4.50714 8.61136 4.16683 8.31424 3.75987 8.14673C3.35292 7.97923 2.90206 7.95069 2.47723 8.06556C2.05241 8.18043 1.67736 8.43227 1.41027 8.78203C1.14317 9.13179 0.998963 9.55992 1.00001 10C0.999782 10.4397 1.14444 10.8672 1.41161 11.2163C1.67877 11.5655 2.05356 11.8169 2.47798 11.9317C2.9024 12.0464 3.35281 12.0182 3.75954 11.8512C4.16627 11.6842 4.50664 11.3879 4.72801 11.008M4.72801 8.992C4.90653 9.29793 5.0006 9.64579 5.0006 10C5.0006 10.3542 4.90653 10.7021 4.72801 11.008M4.72801 11.008L13.272 15.992M13.272 15.992C13.4929 15.6114 13.8332 15.3142 14.2401 15.1467C14.6471 14.9792 15.098 14.9507 15.5228 15.0656C15.9476 15.1804 16.3227 15.4323 16.5897 15.782C16.8568 16.1318 17.001 16.5599 17 17C16.9998 17.3071 16.929 17.61 16.7929 17.8853C16.6568 18.1605 16.4592 18.4008 16.2153 18.5874C15.9714 18.774 15.6879 18.9019 15.3866 18.9613C15.0853 19.0206 14.7744 19.0098 14.478 18.9297C14.1816 18.8495 13.9076 18.7022 13.6772 18.4991C13.4469 18.296 13.2665 18.0426 13.1498 17.7585C13.0332 17.4745 12.9836 17.1673 13.0048 16.861C13.026 16.5547 13.1174 16.2573 13.272 15.992Z" stroke="#B49219" stroke-width="2" stroke-linecap="round" stroke-linejoin="round"/>
</svg>
