<svg width="20" height="20" viewBox="0 0 20 20" fill="none" xmlns="http://www.w3.org/2000/svg">
<path d="M7.50001 3.3335L9.58334 7.91683L14.1667 10.0002L9.58334 12.0835L7.50001 16.6668L5.41668 12.0835L0.833344 10.0002L5.41668 7.91683L7.50001 3.3335ZM7.50001 7.3585L6.66668 9.16683L4.85834 10.0002L6.66668 10.8335L7.50001 12.6418L8.33334 10.8335L10.1417 10.0002L8.33334 9.16683L7.50001 7.3585ZM15.8333 7.50016L14.7833 5.21683L12.5 4.16683L14.7833 3.12516L15.8333 0.833496L16.875 3.12516L19.1667 4.16683L16.875 5.21683L15.8333 7.50016ZM15.8333 19.1668L14.7833 16.8835L12.5 15.8335L14.7833 14.7918L15.8333 12.5002L16.875 14.7918L19.1667 15.8335L16.875 16.8835L15.8333 19.1668Z" fill="#04BFD4"/>
</svg>
