<svg width="24" height="20" viewBox="0 0 24 20" fill="none" xmlns="http://www.w3.org/2000/svg">
<path d="M0.750001 17.75H23.25V19.25H0.750001V17.75ZM21.3604 3.13269C20.2641 2.8273 19.0986 2.84895 18.0788 3.19362L18.0368 3.20769L14.9853 4.658L6.07992 1.11762C5.69117 0.961429 5.26636 0.917554 4.85389 0.990997C4.44141 1.06444 4.05786 1.25225 3.74691 1.53303L2.55469 2.60169C2.42892 2.71444 2.33015 2.85408 2.26572 3.01022C2.20129 3.16637 2.17285 3.33502 2.18251 3.50366C2.19217 3.6723 2.23968 3.83661 2.32151 3.98437C2.40335 4.13214 2.51741 4.25959 2.65524 4.35725L8.17556 8.26934L6.05808 9.37855L4.38113 7.84634C4.0605 7.55396 3.66226 7.36038 3.23427 7.28887C2.80627 7.21736 2.36674 7.27095 1.96847 7.44322L1.05652 7.83861C0.913981 7.90037 0.785781 7.99099 0.679994 8.10475C0.574208 8.21851 0.493127 8.35294 0.44186 8.49958C0.390593 8.64622 0.370251 8.80189 0.382116 8.95678C0.393981 9.11167 0.437795 9.26242 0.510798 9.39955L3.92428 15.8133L22.5141 6.65047C23.6272 6.12655 23.7629 5.28898 23.5181 4.67895C23.2468 4.00264 22.4602 3.43906 21.3604 3.13269ZM21.8713 5.29517L21.8643 5.29845L4.56534 13.825L2.02584 9.05314L2.56491 8.81937C2.69766 8.76194 2.84418 8.74408 2.98685 8.76792C3.12952 8.79176 3.26227 8.85629 3.36914 8.95376L5.82239 11.1953L11.0409 8.46162L3.90572 3.40503L4.74811 2.64997C4.85176 2.55638 4.97961 2.49379 5.1171 2.46931C5.25458 2.44483 5.39618 2.45945 5.52577 2.5115L15.0387 6.29342L18.5989 4.60147C19.3234 4.36667 20.1862 4.35936 20.9737 4.58211C21.6221 4.76558 21.9666 5.03211 22.0833 5.17189C22.0173 5.22056 21.9463 5.26194 21.8714 5.29531L21.8713 5.29517Z" fill="#3AB8FF"/>
</svg>
