<svg width="20" height="20" viewBox="0 0 20 20" fill="none" xmlns="http://www.w3.org/2000/svg">
<path d="M13 12L11.767 12.206C11.7371 12.0269 11.7465 11.8434 11.7947 11.6683C11.8429 11.4932 11.9286 11.3308 12.046 11.1922C12.1634 11.0536 12.3095 10.9423 12.4742 10.8659C12.639 10.7895 12.8184 10.75 13 10.75V12ZM2 12V13.25C1.31 13.25 0.75 12.69 0.75 12H2ZM4 0.75H15.36V3.25H4V0.75ZM16.56 13.25H13V10.75H16.56V13.25ZM14.233 11.794L15.039 16.63L12.573 17.041L11.767 12.206L14.233 11.794ZM12.82 19.25H12.606V16.75H12.82V19.25ZM9.07 17.358L6.554 13.584L8.634 12.197L11.15 15.971L9.07 17.358ZM5.93 13.25H2V10.75H5.93V13.25ZM0.75 12V4H3.25V12H0.75ZM18.547 3.363L19.747 9.363L17.296 9.853L16.096 3.853L18.547 3.363ZM6.554 13.584C6.48552 13.4813 6.39273 13.397 6.28388 13.3388C6.17502 13.2805 6.05347 13.25 5.93 13.25V10.75C6.46499 10.75 6.99171 10.8821 7.46341 11.1345C7.93511 11.3869 8.3372 11.7519 8.634 12.197L6.554 13.584ZM15.039 16.63C15.0927 16.9524 15.0756 17.2826 14.9888 17.5977C14.902 17.9128 14.7475 18.2052 14.5363 18.4545C14.325 18.7039 14.0619 18.9042 13.7653 19.0416C13.4688 19.179 13.1468 19.2501 12.82 19.25V16.75C12.7838 16.7501 12.747 16.7581 12.7141 16.7734C12.6812 16.7887 12.6521 16.8109 12.6287 16.8386C12.6053 16.8663 12.5882 16.8987 12.5786 16.9337C12.569 16.9686 12.5671 17.0052 12.573 17.041L15.039 16.631V16.63ZM16.56 10.75C16.671 10.7501 16.7806 10.7255 16.881 10.6781C16.9814 10.6307 17.0699 10.5616 17.1404 10.4757C17.2108 10.3899 17.2612 10.2896 17.2882 10.1819C17.3151 10.0742 17.3178 9.96185 17.296 9.853L19.747 9.363C19.8412 9.83441 19.8297 10.3208 19.7132 10.7873C19.5968 11.2537 19.3783 11.6884 19.0736 12.0602C18.7688 12.432 18.3854 12.7316 17.9509 12.9373C17.5164 13.1431 17.0417 13.2499 16.561 13.25V10.75H16.56ZM15.36 0.75C16.1114 0.749991 16.8396 1.01034 17.4206 1.48675C18.0017 1.96315 18.3997 2.62618 18.547 3.363L16.096 3.853C16.062 3.68287 15.9701 3.5298 15.8359 3.41985C15.7017 3.3099 15.5335 3.24987 15.36 3.25V0.75ZM12.606 19.25C11.9064 19.25 11.2176 19.0773 10.6008 18.7473C9.98397 18.4172 9.45815 17.94 9.07 17.358L11.15 15.971C11.474 16.458 12.02 16.75 12.606 16.75V19.25ZM4 3.25C3.80109 3.25 3.61032 3.32902 3.46967 3.46967C3.32902 3.61032 3.25 3.80109 3.25 4H0.75C0.75 3.13805 1.09241 2.3114 1.7019 1.7019C2.3114 1.09241 3.13805 0.75 4 0.75V3.25Z" fill="#4B4B4B"/>
<path d="M6 12V2" stroke="#4B4B4B" stroke-width="2.5"/>
</svg>
